<svg xmlns="http://www.w3.org/2000/svg" viewBox="0 0 41 41"><defs><style>.cls-1{fill:#fff;}</style></defs><title>arrow-big-right</title><g id="Layer_2" data-name="Layer 2"><g id="Layer_1-2" data-name="Layer 1"><path class="cls-1" d="M20.5,0A20.5,20.5,0,1,0,41,20.5,20.53,20.53,0,0,0,20.5,0Zm0,40A19.5,19.5,0,1,1,40,20.5,19.53,19.53,0,0,1,20.5,40Z"/><path class="cls-1" d="M13.35,10.15a.49.49,0,0,0-.7.7l9.64,9.65-9.64,9.65a.48.48,0,0,0,0,.7.48.48,0,0,0,.7,0L23.71,20.5Z"/><path class="cls-1" d="M17.65,10.15a.48.48,0,0,0,0,.7l9.64,9.65-9.64,9.65a.48.48,0,0,0,0,.7.48.48,0,0,0,.7,0L28.71,20.5,18.35,10.15A.48.48,0,0,0,17.65,10.15Z"/></g></g></svg>