<svg xmlns="http://www.w3.org/2000/svg" viewBox="0 0 41 41"><defs><style>.cls-1{fill:#fff;}</style></defs><title>arrow-big-left</title><g id="Layer_2" data-name="Layer 2"><g id="Layer_1-2" data-name="Layer 1"><path class="cls-1" d="M20.5,0A20.5,20.5,0,1,1,0,20.5,20.53,20.53,0,0,1,20.5,0Zm0,40A19.5,19.5,0,1,0,1,20.5,19.53,19.53,0,0,0,20.5,40Z"/><path class="cls-1" d="M27.65,10.15a.49.49,0,1,1,.7.7L18.71,20.5l9.64,9.65a.48.48,0,0,1,0,.7.48.48,0,0,1-.7,0L17.29,20.5Z"/><path class="cls-1" d="M23.35,10.15a.48.48,0,0,1,0,.7L13.71,20.5l9.64,9.65a.48.48,0,0,1,0,.7.48.48,0,0,1-.7,0L12.29,20.5,22.65,10.15A.48.48,0,0,1,23.35,10.15Z"/></g></g></svg>