<svg xmlns="http://www.w3.org/2000/svg" viewBox="0 0 21 21"><defs><style>.cls-1{fill:#fff;}</style></defs><title>arrow-small-right</title><g id="Layer_2" data-name="Layer 2"><g id="Layer_1-2" data-name="Layer 1"><path class="cls-1" d="M10.5,0A10.5,10.5,0,1,0,21,10.5,10.51,10.51,0,0,0,10.5,0Zm0,20A9.5,9.5,0,1,1,20,10.5,9.51,9.51,0,0,1,10.5,20Z"/><path class="cls-1" d="M7.1,5.15a.49.49,0,0,0-.7.7L11,10.5,6.4,15.15a.48.48,0,0,0,0,.7.48.48,0,0,0,.7,0l5.36-5.35Z"/><path class="cls-1" d="M8.9,5.15a.48.48,0,0,0,0,.7l4.64,4.65L8.9,15.15a.48.48,0,0,0,0,.7.48.48,0,0,0,.7,0L15,10.5,9.6,5.15A.48.48,0,0,0,8.9,5.15Z"/></g></g></svg>