<svg xmlns="http://www.w3.org/2000/svg" viewBox="0 0 21 21"><defs><style>.cls-1{fill:#fff;}</style></defs><title>arrow-small-left</title><g id="Layer_2" data-name="Layer 2"><g id="Layer_1-2" data-name="Layer 1"><path class="cls-1" d="M10.5,0A10.5,10.5,0,1,1,0,10.5,10.51,10.51,0,0,1,10.5,0Zm0,20A9.5,9.5,0,1,0,1,10.5,9.51,9.51,0,0,0,10.5,20Z"/><path class="cls-1" d="M13.9,5.15a.49.49,0,0,1,.7.7L10,10.5l4.64,4.65a.48.48,0,0,1,0,.7.48.48,0,0,1-.7,0L8.54,10.5Z"/><path class="cls-1" d="M12.1,5.15a.48.48,0,0,1,0,.7L7.46,10.5l4.64,4.65a.48.48,0,0,1,0,.7.48.48,0,0,1-.7,0L6,10.5,11.4,5.15A.48.48,0,0,1,12.1,5.15Z"/></g></g></svg>