<svg xmlns="http://www.w3.org/2000/svg" viewBox="0 0 63.44 60"><defs><style>.cls-1{fill:#fff;}</style></defs><title>camera</title><g id="Layer_2" data-name="Layer 2"><g id="Layer_1-2" data-name="Layer 1"><path class="cls-1" d="M53,30.06l.15.42L57.1,41a3.15,3.15,0,0,1,.09,2.14,3,3,0,0,1-1.88,2l-4.86,1.85L16.82,59.73a3.22,3.22,0,0,1-2.58,0A3,3,0,0,1,12.61,58l-1.69-4.41L7,43.3l-.3-.81c-.1,0-.22,0-.32,0l-5,1.3a1.16,1.16,0,0,1-.76,0,1,1,0,0,1-.09-1.77c.21-.1.44-.17.66-.26L38.25,27.75l.38-.16c0-.13,0-.26,0-.39V18c0-.38,0-.38-.35-.53A3.62,3.62,0,0,1,36,14c0-1.94,0-3.89,0-5.83C36,6,36,3.81,36,1.65a2.41,2.41,0,0,1,0-.54,1,1,0,0,1,1-.8,1,1,0,0,1,1,.9,3.09,3.09,0,0,1,0,.43q0,6,0,12c0,.18,0,.36,0,.54a1.64,1.64,0,0,0,.56,1.15c0-.16,0-.26,0-.37a12.39,12.39,0,0,1,.07-1.36,2.8,2.8,0,0,1,5.53.16c0,.35,0,.7,0,1.05v.49a1.46,1.46,0,0,0,.59-1.09,3.05,3.05,0,0,0,0-.43V1.63c0-.13,0-.26,0-.39a1,1,0,0,1,2,0v.31c0,4.12,0,8.24,0,12.35a3.6,3.6,0,0,1-2.36,3.57c-.18.08-.28.17-.26.37v.24c0,2.25,0,4.51,0,6.76,0,.17,0,.33,0,.53l.41-.13,2.63-1a3.11,3.11,0,0,1,4.1,1.87c.18.53.4,1.05.6,1.57,0,.12.1.23.15.37l.2-.08A17.9,17.9,0,0,0,59,22.14a13.87,13.87,0,0,0,2.19-5.84A21.94,21.94,0,0,0,58.44,2.19c-.12-.22-.27-.42-.39-.63a1,1,0,0,1,.3-1.38,1,1,0,0,1,1.38.25,13.42,13.42,0,0,1,.81,1.3,23.81,23.81,0,0,1,2.65,8,21.86,21.86,0,0,1,.25,3.23,19.41,19.41,0,0,1-1.34,7.72A17.59,17.59,0,0,1,57,27.35a20.87,20.87,0,0,1-3.7,2.46L53,30S53,30,53,30.06Zm-.41,4.64c0-.12-.07-.22-.11-.32-.38-1-.75-2-1.13-3L49.59,26.9a1.19,1.19,0,0,0-.79-.8,1.32,1.32,0,0,0-.83.1L26.08,34.54,10.94,40.31c-.15,0-.29.12-.44.18a7,7,0,0,0,1.11.48,31.8,31.8,0,0,0,9.47,1.62,36.81,36.81,0,0,0,6.12-.29c1.65-.21,3.3-.44,4.94-.74a74.9,74.9,0,0,0,10.31-2.63A63.1,63.1,0,0,0,52.55,34.7Zm.63,1.64-.13,0-.17.08A79.45,79.45,0,0,1,33.66,42.8c-2.14.43-4.29.81-6.47,1-1.47.15-3,.3-4.43.36a41,41,0,0,1-6.17-.2,38.57,38.57,0,0,1-4.53-.76,2.9,2.9,0,0,0-.39,0l5.39,14.3.29-.09,5.94-2.27a1.42,1.42,0,0,0,.41-.28c.57-.56,1.11-1.15,1.69-1.68a42,42,0,0,1,8.29-5.84,93.67,93.67,0,0,1,20.24-8.23l.28-.1ZM26.35,53.89l0,0,.36-.13,24.35-9.29c1.14-.43,2.27-.85,3.4-1.29a1.1,1.1,0,0,0,.72-1.58c-.1-.28-.21-.56-.32-.84s-.22-.58-.35-.9l-1.68.43a85.44,85.44,0,0,0-12.28,4.47,62.91,62.91,0,0,0-8.25,4.33,33.87,33.87,0,0,0-5.72,4.47Zm-12.62,0a6.17,6.17,0,0,0-.08-.62A21,21,0,0,0,11,46.74c-.13-.2-.28-.38-.42-.57a1,1,0,0,0-.25-.24c-.09-.07-.24-.16-.3-.13a.59.59,0,0,0-.17.32.81.81,0,0,0,0,.31,5,5,0,0,0,.1.66,21.12,21.12,0,0,0,2.47,6.21,9.43,9.43,0,0,0,.64.88,1.26,1.26,0,0,0,.33.28.18.18,0,0,0,.3-.12A3.13,3.13,0,0,0,13.73,53.91Z"/><path class="cls-1" d="M10.15,46.59A2.85,2.85,0,0,1,11,48.7c-.32-.1-.4-.39-.52-.63C10.1,47.3,10,46.88,10.15,46.59Z"/></g></g></svg>