<svg xmlns="http://www.w3.org/2000/svg" viewBox="0 0 16.71 14.14"><defs><style>.cls-1{fill:#fefeff;}</style></defs><title>cart</title><g id="Layer_2" data-name="Layer 2"><g id="Layer_1-2" data-name="Layer 1"><path class="cls-1" d="M16.71,7.07a.66.66,0,0,1-.58.64L5.65,8.94a3.32,3.32,0,0,1,.13.7,1.51,1.51,0,0,1-.24.64h9.24a.65.65,0,0,1,0,1.29H4.5a.65.65,0,0,1-.64-.65,5.15,5.15,0,0,1,.61-1.37L2.69,1.29h-2A.65.65,0,0,1,0,.64.64.64,0,0,1,.64,0H3.21c.68,0,.7.8.8,1.29h12a.65.65,0,0,1,.65.64ZM5.14,14.14a1.29,1.29,0,1,1,1.29-1.29A1.3,1.3,0,0,1,5.14,14.14Zm9,0a1.29,1.29,0,1,1,1.28-1.29A1.3,1.3,0,0,1,14.14,14.14Z"/></g></g></svg>