<svg xmlns="http://www.w3.org/2000/svg" viewBox="0 0 15 15"><defs><style>.cls-1{fill:#fff;}</style></defs><title>clock</title><g id="Layer_2" data-name="Layer 2"><g id="Layer_1-2" data-name="Layer 1"><path class="cls-1" d="M7.5,0A7.5,7.5,0,1,0,15,7.5,7.5,7.5,0,0,0,7.5,0Zm0,14A6.5,6.5,0,1,1,14,7.5,6.51,6.51,0,0,1,7.5,14Z"/><path class="cls-1" d="M11.2,4.1,8.33,6.25a1.49,1.49,0,0,0-1.72,0L4.78,5.08l-.56.84L6.05,7.13A1.5,1.5,0,1,0,9,7.5a1.56,1.56,0,0,0-.07-.44L11.8,4.9ZM7.5,8A.5.5,0,1,1,8,7.5.5.5,0,0,1,7.5,8Z"/></g></g></svg>