<svg xmlns="http://www.w3.org/2000/svg" viewBox="0 0 53.43 53.43"><defs><style>.cls-1{fill:#fff;}</style></defs><title>cog</title><g id="Layer_2" data-name="Layer 2"><g id="Layer_1-2" data-name="Layer 1"><path class="cls-1" d="M26.71,17.14a9.59,9.59,0,0,0-9.57,9.57,9.59,9.59,0,0,0,9.57,9.58,9.59,9.59,0,0,0,9.58-9.58,9.59,9.59,0,0,0-9.58-9.57Zm5.36,14.93a7.57,7.57,0,0,1-10.71,0,7.25,7.25,0,0,1-2.22-5.36,7.58,7.58,0,0,1,7.57-7.57,7.58,7.58,0,0,1,7.58,7.57A7.25,7.25,0,0,1,32.07,32.07Z"/><path class="cls-1" d="M53,21.67a2.09,2.09,0,0,0-1.35-.8L46.09,20a23.27,23.27,0,0,0-1-2.29c.37-.49.84-1.11,1.42-1.84.81-1,1.39-1.78,1.73-2.26a2.25,2.25,0,0,0,.46-1.36,2.11,2.11,0,0,0-.44-1.35,46.94,46.94,0,0,0-5.68-5.84,2.22,2.22,0,0,0-2.93,0L35.48,8.24a20.55,20.55,0,0,0-2-.83l-.84-5.48A2,2,0,0,0,31.88.51,2.23,2.23,0,0,0,30.43,0H23a2.11,2.11,0,0,0-2.18,1.69,52.16,52.16,0,0,0-.92,5.73,18.54,18.54,0,0,0-2,.84l-4.13-3.2a2.39,2.39,0,0,0-1.48-.54c-.68,0-1.61.46-3.86,2.68A32.28,32.28,0,0,0,5,11a2.33,2.33,0,0,0-.48,1.33,2.22,2.22,0,0,0,.56,1.44c1.29,1.56,2.36,2.92,3.19,4.07a18.94,18.94,0,0,0-.9,2.1l-5.65.85a2,2,0,0,0-1.26.83A2.25,2.25,0,0,0,0,22.93v7.43a2.27,2.27,0,0,0,.47,1.4,2.09,2.09,0,0,0,1.36.8l5.5.81a17,17,0,0,0,1,2.33c-.37.49-.84,1.1-1.42,1.83-.82,1-1.39,1.78-1.73,2.26a2.23,2.23,0,0,0-.46,1.35,2.33,2.33,0,0,0,.42,1.36,44,44,0,0,0,5.63,5.75,2.16,2.16,0,0,0,1.54.66,2.2,2.2,0,0,0,1.45-.51L18,45.19A20.09,20.09,0,0,0,20,46l.84,5.49a2,2,0,0,0,.75,1.42,2.29,2.29,0,0,0,1.45.51h7.43a2.1,2.1,0,0,0,2.17-1.69A47.61,47.61,0,0,0,33.52,46a18.7,18.7,0,0,0,2-.84l4.19,3.28a2.68,2.68,0,0,0,1.42.46c.68,0,1.6-.45,3.84-2.67a34.7,34.7,0,0,0,3.4-3.7,2.13,2.13,0,0,0,.52-1.4,2.33,2.33,0,0,0-.56-1.47c-1.36-1.66-2.43-3-3.19-4.07A21.68,21.68,0,0,0,46,33.54l5.63-.85A2.05,2.05,0,0,0,53,31.86a2.32,2.32,0,0,0,.46-1.36V23.06A2.29,2.29,0,0,0,53,21.67ZM51.43,30.5s0,.07-.09.21l-6.19.94-.8.66a19.66,19.66,0,0,1-1.24,2.9l.06,1c.79,1.13,2,2.71,3.64,4.69a.39.39,0,0,1,.1.19.13.13,0,0,1,0,.11l-.06.08a34.8,34.8,0,0,1-3.21,3.49,13.75,13.75,0,0,1-2.44,2.09.6.6,0,0,1-.26-.09L36.27,43.2l-1.08-.09a18.17,18.17,0,0,1-2.89,1.2l-.69.84a55.09,55.09,0,0,1-.94,6.1.28.28,0,0,1-.07.15s0,0-.17,0H23c-.1,0-.15,0-.22-.16l-.94-6.16-.68-.8a19.18,19.18,0,0,1-2.86-1.18l-1.06.1-4.79,3.63s0,0-.17,0,0,0-.16-.11a44.29,44.29,0,0,1-5.38-5.46.3.3,0,0,1,0-.2s0-.07.08-.18c.32-.46.89-1.19,1.68-2.19s1.42-1.83,1.83-2.4l.07-1.06A15.67,15.67,0,0,1,9.06,32.2l-.82-.72-6.18-.94A.3.3,0,0,1,2,30.36V22.93a.63.63,0,0,1,0-.22l6.23-.93.81-.7a15.27,15.27,0,0,1,1.23-2.9l-.06-1.05c-.91-1.28-2.13-2.86-3.64-4.68-.07-.09-.09-.15-.1-.15a1.65,1.65,0,0,1,.11-.2A31.91,31.91,0,0,1,9.82,8.63a13.93,13.93,0,0,1,2.46-2.11.58.58,0,0,1,.26.12l4.62,3.59,1.08.09a17.43,17.43,0,0,1,2.89-1.2l.68-.84a54.37,54.37,0,0,1,1-6.1A.5.5,0,0,1,22.82,2,.63.63,0,0,1,23,2h7.43c.1,0,.15,0,.22.15l.93,6.17.68.8a19.49,19.49,0,0,1,2.87,1.17l1.06-.09,4.75-3.58.1-.09h.11a.26.26,0,0,1,.15.07,46,46,0,0,1,5.43,5.58.4.4,0,0,1,0,.11.31.31,0,0,1-.08.19c-.33.46-.89,1.2-1.68,2.19s-1.42,1.82-1.83,2.4l-.08,1a19.82,19.82,0,0,1,1.31,3.12l.8.69,6.18,1a.26.26,0,0,1,.07.18Z"/></g></g></svg>