<svg xmlns="http://www.w3.org/2000/svg" xmlns:xlink="http://www.w3.org/1999/xlink" viewBox="0 0 39.99 39.99"><defs><style>.cls-1{fill:url(#linear-gradient);}.cls-2{fill:#fff;}</style><linearGradient id="linear-gradient" x1="-22.94" y1="-63.57" x2="-22.94" y2="-108.57" gradientTransform="translate(-26.41 98.85) rotate(45)" gradientUnits="userSpaceOnUse"><stop offset="0" stop-color="#d43737"/><stop offset="1" stop-color="#e67f37"/></linearGradient></defs><title>hot</title><g id="Layer_2" data-name="Layer 2"><g id="Layer_1-2" data-name="Layer 1"><path class="cls-1" d="M34.13,34.14a20,20,0,1,0-30-2l-1.84,5.5,5.5-1.84A20,20,0,0,0,34.13,34.14Z"/><path class="cls-2" d="M11.08,26.84H8.93V13.15h2.15V19h2.45V13.15h2.19V26.84H13.53V21H11.08Z"/><path class="cls-2" d="M17.11,16.44c0-2.19,1.15-3.45,3.27-3.45s3.26,1.26,3.26,3.45v7.11c0,2.19-1.15,3.44-3.26,3.44s-3.27-1.25-3.27-3.44Zm2.15,7.25c0,1,.43,1.35,1.12,1.35s1.11-.37,1.11-1.35V16.3c0-1-.43-1.35-1.11-1.35s-1.12.37-1.12,1.35Z"/><path class="cls-2" d="M24.41,13.15h6.65v2H28.81V26.84H26.66V15.11H24.41Z"/></g></g></svg>