<svg xmlns="http://www.w3.org/2000/svg" viewBox="0 0 15 20.27"><defs><style>.cls-1{fill:#fff;}</style></defs><title>map-marker</title><g id="Layer_2" data-name="Layer 2"><g id="Layer_1-2" data-name="Layer 1"><path class="cls-1" d="M7.5,0A7.5,7.5,0,0,0,0,7.5c0,4,6.83,12,7.12,12.33l.38.44.38-.44C8.17,19.49,15,11.51,15,7.5A7.5,7.5,0,0,0,7.5,0Zm0,18.72C6.06,17,1,10.64,1,7.5a6.5,6.5,0,0,1,13,0C14,10.63,8.94,17,7.5,18.72Z"/><path class="cls-1" d="M7.5,5A2.5,2.5,0,1,0,10,7.5,2.5,2.5,0,0,0,7.5,5Zm0,4A1.5,1.5,0,1,1,9,7.5,1.5,1.5,0,0,1,7.5,9Z"/></g></g></svg>