<svg xmlns="http://www.w3.org/2000/svg" xmlns:xlink="http://www.w3.org/1999/xlink" viewBox="0 0 39.99 39.99"><defs><style>.cls-1{fill:url(#linear-gradient);}.cls-2{fill:#fff;}</style><linearGradient id="linear-gradient" x1="6.46" y1="8.73" x2="6.46" y2="-36.27" gradientTransform="translate(3.92 26.94) rotate(45)" gradientUnits="userSpaceOnUse"><stop offset="0" stop-color="#22489b"/><stop offset="1" stop-color="#00b5ff"/></linearGradient></defs><title>new</title><g id="Layer_2" data-name="Layer 2"><g id="Layer_1-2" data-name="Layer 1"><path class="cls-1" d="M34.13,34.14a20,20,0,1,0-30-2l-1.84,5.5,5.5-1.84A20,20,0,0,0,34.13,34.14Z"/><path class="cls-2" d="M8.93,16.85V27H7V13H9.71L12,21.37V13h2V27H11.67Z"/><path class="cls-2" d="M17.72,18.89h3v2h-3V25h3.8v2h-6V13h6v2h-3.8Z"/><path class="cls-2" d="M27.76,19.53,27,27h-3L22.38,13h2.14L25.7,24l1.06-11h2.12L30,24.12,31.12,13H33L31.48,27H28.56Z"/></g></g></svg>