<svg xmlns="http://www.w3.org/2000/svg" viewBox="0 0 15 15"><defs><style>.cls-1{fill:#fff;}</style></defs><title>phone</title><g id="Layer_2" data-name="Layer 2"><g id="Layer_1-2" data-name="Layer 1"><path class="cls-1" d="M14.94,11.19c-.09-.27-.36-.49-1-.8L13.34,10l-.55-.3c-.19-.1-.36-.2-.48-.28l-.26-.18A3.76,3.76,0,0,0,11.63,9a1.09,1.09,0,0,0-1.34.3,5.59,5.59,0,0,0-.61.68,5.35,5.35,0,0,1-.48.57c-.11.11-.17.14-.15.11l-.16-.06-.19-.12-.1-.06-.12-.07h0A10.06,10.06,0,0,1,6.26,8.74a9.75,9.75,0,0,1-1.63-2.2L4.49,6.3a1,1,0,0,1-.12-.21A.41.41,0,0,0,4.28,6a1.3,1.3,0,0,1,.14-.17A6.57,6.57,0,0,1,5,5.32a4.87,4.87,0,0,0,.68-.61,1.22,1.22,0,0,0,.42-.84A1.18,1.18,0,0,0,6,3.37,3.76,3.76,0,0,0,5.72,3l-.16-.22c-.1-.16-.2-.34-.3-.52l-.34-.63-.29-.52C4.3.42,4.08.15,3.85.08a2,2,0,0,0-1.22,0,5,5,0,0,0-.76.24A3,3,0,0,0,.57,1.78,4.36,4.36,0,0,0,0,3.87a3.81,3.81,0,0,0,0,.59,5,5,0,0,0,.14.64,4.82,4.82,0,0,0,.15.5l.21.57c.1.25.15.41.17.47a9.52,9.52,0,0,0,.88,1.84A15.09,15.09,0,0,0,3.8,11.2a16,16,0,0,0,2.72,2.22,9.8,9.8,0,0,0,1.84.87l.47.17.57.21.5.15a3.74,3.74,0,0,0,.64.14,3.81,3.81,0,0,0,.59,0,4.36,4.36,0,0,0,2.09-.57,3,3,0,0,0,1.43-1.29,4.75,4.75,0,0,0,.24-.77,4,4,0,0,0,.11-.81A.89.89,0,0,0,14.94,11.19Zm-1,1a2.71,2.71,0,0,1-.18.6c0,.1-.22.38-1,.8a3.3,3.3,0,0,1-2.06.42,4.33,4.33,0,0,1-.51-.11l-.44-.13-.54-.2-.5-.19a7.54,7.54,0,0,1-1.64-.78,13.52,13.52,0,0,1-2.54-2.07A13.6,13.6,0,0,1,2.44,8a8.8,8.8,0,0,1-.78-1.63c0-.06-.08-.23-.19-.51s-.16-.44-.2-.54l-.13-.44A4.68,4.68,0,0,1,1,4.33a3.44,3.44,0,0,1,0-.46,3.39,3.39,0,0,1,.44-1.6c.43-.77.71-1,.83-1a3.39,3.39,0,0,1,.58-.18A2.82,2.82,0,0,1,3.43,1h0a3.06,3.06,0,0,1,.31.53c.07.12.16.3.29.52s.24.45.35.64.21.38.37.62l.14.2.2.31A1,1,0,0,1,5,4a4.36,4.36,0,0,1-.56.5,5.18,5.18,0,0,0-.67.57,1.22,1.22,0,0,0-.43.81,1.29,1.29,0,0,0,.08.4,2.42,2.42,0,0,0,.11.25,2.65,2.65,0,0,0,.16.28l.1.17A11.31,11.31,0,0,0,5.56,9.45,10.89,10.89,0,0,0,8.07,11.3l.1.06.28.16.25.11a1.09,1.09,0,0,0,1.21-.35,6.19,6.19,0,0,0,.58-.67,3.64,3.64,0,0,1,.49-.55c.13-.13.19-.16.22-.13a2.1,2.1,0,0,1,.28.18l.28.19.54.31.64.35.55.31a3.23,3.23,0,0,1,.51.29A2.73,2.73,0,0,1,13.91,12.15Z"/></g></g></svg>