<svg xmlns="http://www.w3.org/2000/svg" xmlns:xlink="http://www.w3.org/1999/xlink" viewBox="0 0 39.99 39.99"><defs><style>.cls-1{fill:url(#linear-gradient);}.cls-2{fill:#fff;}</style><linearGradient id="linear-gradient" x1="58.07" y1="47.55" x2="58.07" y2="2.55" gradientTransform="translate(-5.13 -37) rotate(45)" gradientUnits="userSpaceOnUse"><stop offset="0" stop-color="#227d26"/><stop offset="1" stop-color="#adb726"/></linearGradient></defs><title>sale</title><g id="Layer_2" data-name="Layer 2"><g id="Layer_1-2" data-name="Layer 1"><path class="cls-1" d="M34.13,34.14a20,20,0,1,0-30-2l-1.84,5.5,5.5-1.84A20,20,0,0,0,34.13,34.14Z"/><path class="cls-2" d="M9.17,13c2.09,0,3.16,1.26,3.16,3.45v.43h-2V16.3c0-1-.39-1.35-1.08-1.35s-1.07.37-1.07,1.35c0,2.82,4.2,3.34,4.2,7.25,0,2.19-1.09,3.44-3.2,3.44s-3.21-1.25-3.21-3.44v-.84H8v1C8,24.67,8.4,25,9.09,25s1.11-.35,1.11-1.33c0-2.82-4.2-3.34-4.2-7.25C6,14.25,7.07,13,9.17,13Z"/><path class="cls-2" d="M20.55,26.84H18.38L18,24.35H15.37L15,26.84H13l2.19-13.69h3.15ZM15.64,22.5h2.07l-1-6.92Z"/><path class="cls-2" d="M21.55,13.15H23.7V24.88h3.54v2H21.55Z"/><path class="cls-2" d="M30.33,18.92h3v1.95h-3v4h3.72v2H28.18V13.15h5.87v2H30.33Z"/></g></g></svg>