<svg xmlns="http://www.w3.org/2000/svg" viewBox="0 0 49.14 60"><defs><style>.cls-1{fill:#fff;}</style></defs><title>wrench</title><g id="Layer_2" data-name="Layer 2"><g id="Layer_1-2" data-name="Layer 1"><path class="cls-1" d="M36.22,23.16c2.4-.88,4.7-1.71,7-2.57a1.11,1.11,0,0,1,1.59.6,13.66,13.66,0,0,0,1.19,2c1.16,1.55,1.5,2.92-.23,4.39-.84.72.1,3.45,1.2,3.81,2.68.86,2.11.94,2.16,3.12,0,.42,0,.84,0,1.25-.06,2.48.51,2.61-2.31,3.43-1.07.32-1.73,3.05-1,3.91,1.83,2,1.6,1.6.26,4-.2.37-.41.73-.61,1.09-1.2,2.08-1.2,2.08-3.51,1.69-1.21-.2-3.1,1.67-2.87,2.9.48,2.59.64,2.11-1.7,3.52-.35.22-.72.42-1.08.62-2.31,1.29-1.9,1.61-4-.28-.84-.77-3.45-.06-3.87,1a6.51,6.51,0,0,0-.36,1A1.44,1.44,0,0,1,26.42,60a21.77,21.77,0,0,0-3.33,0,1.85,1.85,0,0,1-2.2-1.55,2.73,2.73,0,0,0-4.64-1.26,1.8,1.8,0,0,1-2.66.25,19.43,19.43,0,0,0-2.76-1.6,1.67,1.67,0,0,1-.95-2.26A3.36,3.36,0,0,0,8,49.89a3,3,0,0,0-1.74.18,1.53,1.53,0,0,1-2.12-.94A31.31,31.31,0,0,0,2.37,46a1.5,1.5,0,0,1,.23-2.09c1.74-2,1.21-4.2-1.26-5A1.65,1.65,0,0,1,0,37,26.79,26.79,0,0,0,0,33.5a1.6,1.6,0,0,1,1.3-1.81c2.45-.83,3.09-3,1.39-4.88a1.71,1.71,0,0,1-.21-2.44c.7-1,1.21-2.2,1.92-3.22a1.55,1.55,0,0,1,1.29-.57c2.4.78,4.77,1.69,7.18,2.56-8,8.63-5.31,19.69.82,24.88A16.74,16.74,0,0,0,36,47.5C42.05,41.81,43.71,31.17,36.22,23.16Z"/><path class="cls-1" d="M23.79,3.65a8.9,8.9,0,0,1,3,12.67,27.73,27.73,0,0,0-2.66,4.37A13.3,13.3,0,0,0,23,25.36C22.92,30.92,23,36.48,23,42c0,2.88-.1,5.75,1.73,8.46a14.62,14.62,0,0,1-8.6-2.58c-.22-.14-.31-.6-.31-.91,0-7.5.18-15,.14-22.5,0-2.89-1.54-5.29-3.29-7.5A8.91,8.91,0,0,1,13.72,4.54c.37-.32.8-.56,1.47-1,0,2.56.07,4.81,0,7.05-.05,1.2.56,1.7,1.41,2.42C19,15,21,13.9,23,12.47a2.19,2.19,0,0,0,.66-1.53c.07-1.94,0-3.89,0-5.84C23.7,4.67,23.75,4.23,23.79,3.65Z"/><path class="cls-1" d="M27.77,50.16V44.93c0-2.87.09-5.74,0-8.61a10.9,10.9,0,0,1,1.33-5.72,13.78,13.78,0,0,0,1.57-6.54c0-5.14,0-10.28,0-15.41a7.78,7.78,0,0,0-.55-1.93,4.39,4.39,0,0,1-.28-1.31c.06-1.34.21-2.67.31-4,.08-1,.59-1.5,1.64-1.38s2.38-.49,2.55,1.29c.13,1.42.25,2.85.37,4.28,0,.23.06.54-.06.68-1.3,1.42-.79,3.16-.81,4.77-.06,4.17,0,8.33,0,12.5a14.65,14.65,0,0,0,1.66,7.22,10.38,10.38,0,0,1,1.26,5.46c-.12,2.45,0,4.9,0,7.36a2.31,2.31,0,0,1-.31,1.29A14.47,14.47,0,0,1,27.77,50.16Z"/></g></g></svg>