<svg xmlns="http://www.w3.org/2000/svg" viewBox="0 0 19 13.86"><defs><style>.cls-1{fill:#fff;}</style></defs><title>youtube</title><g id="Layer_2" data-name="Layer 2"><g id="Layer_1-2" data-name="Layer 1"><path class="cls-1" d="M13.32,6,8.18,2.75a1.14,1.14,0,0,0-1.75,1v6.43a1.09,1.09,0,0,0,.61,1,1.13,1.13,0,0,0,.53.14,1,1,0,0,0,.61-.18l5.12-3.2a1.09,1.09,0,0,0,.56-1A1.07,1.07,0,0,0,13.32,6Zm-.53,1.09L7.62,10.28l.27.42-.39-.43c-.06,0-.07,0-.07-.13V3.71c0-.07,0-.09.07-.12a.13.13,0,0,1,.08,0l.07,0,5.16,3.22s0,0,0,.11A.11.11,0,0,1,12.79,7.05Z"/><path class="cls-1" d="M19,5.41C19,5,19,4.57,18.9,4a14.81,14.81,0,0,0-.22-1.55A2.87,2.87,0,0,0,17.83,1,2.64,2.64,0,0,0,16.3.25C14.79.09,12.51,0,9.5,0S4.21.09,2.7.25A2.64,2.64,0,0,0,1.17,1,2.85,2.85,0,0,0,.33,2.46,12.46,12.46,0,0,0,.1,4C.05,4.57,0,5,0,5.41s0,.87,0,1.52S0,8.08,0,8.44s0,.84.09,1.41a12.11,12.11,0,0,0,.22,1.54,2.9,2.9,0,0,0,.85,1.5,2.56,2.56,0,0,0,1.53.71,66.15,66.15,0,0,0,6.8.26,66.15,66.15,0,0,0,6.8-.26,2.59,2.59,0,0,0,1.53-.71,2.89,2.89,0,0,0,.84-1.49,12.46,12.46,0,0,0,.23-1.55c.05-.57.08-1,.09-1.4s0-.87,0-1.52S19,5.78,19,5.41Zm-1,3c0,.35,0,.79-.08,1.33a10.37,10.37,0,0,1-.22,1.42,1.92,1.92,0,0,1-.55,1,1.6,1.6,0,0,1-1,.45c-1.46.16-3.71.25-6.68.25s-5.22-.09-6.68-.25a1.65,1.65,0,0,1-1-.45,1.92,1.92,0,0,1-.55-1,12,12,0,0,1-.21-1.42C1,9.22,1,8.78,1,8.43s0-.86,0-1.5,0-1.14,0-1.5,0-.8.08-1.33a10.13,10.13,0,0,1,.22-1.42,1.84,1.84,0,0,1,.55-1,1.6,1.6,0,0,1,1-.45A64,64,0,0,1,9.5,1a64,64,0,0,1,6.68.25,1.65,1.65,0,0,1,1,.45,1.93,1.93,0,0,1,.55,1,12.51,12.51,0,0,1,.21,1.43c.05.53.07,1,.08,1.33h0c0,.36,0,.86,0,1.5S18,8.07,18,8.43Z"/></g></g></svg>