<svg xmlns="http://www.w3.org/2000/svg">

  <symbol id="arrow_left_circle" viewBox="0 0 41 41"><path d="M20.5,0A20.5,20.5,0,1,1,0,20.5,20.53,20.53,0,0,1,20.5,0Zm0,40A19.5,19.5,0,1,0,1,20.5,19.53,19.53,0,0,0,20.5,40Z"/><path d="M27.65,10.15a.49.49,0,1,1,.7.7L18.71,20.5l9.64,9.65a.48.48,0,0,1,0,.7.48.48,0,0,1-.7,0L17.29,20.5Z"/><path d="M23.35,10.15a.48.48,0,0,1,0,.7L13.71,20.5l9.64,9.65a.48.48,0,0,1,0,.7.48.48,0,0,1-.7,0L12.29,20.5,22.65,10.15A.48.48,0,0,1,23.35,10.15Z"/></symbol>
  <symbol id="arrow_right_circle" viewBox="0 0 41 41"><path d="M20.5,0A20.5,20.5,0,1,0,41,20.5,20.53,20.53,0,0,0,20.5,0Zm0,40A19.5,19.5,0,1,1,40,20.5,19.53,19.53,0,0,1,20.5,40Z"/><path d="M13.35,10.15a.49.49,0,0,0-.7.7l9.64,9.65-9.64,9.65a.48.48,0,0,0,0,.7.48.48,0,0,0,.7,0L23.71,20.5Z"/><path d="M17.65,10.15a.48.48,0,0,0,0,.7l9.64,9.65-9.64,9.65a.48.48,0,0,0,0,.7.48.48,0,0,0,.7,0L28.71,20.5,18.35,10.15A.48.48,0,0,0,17.65,10.15Z"/></symbol>
  <symbol id="arrow_left" viewBox="0 0 17 28"><path d="M9.797 21.5c0 0.125-0.063 0.266-0.156 0.359l-0.781 0.781c-0.094 0.094-0.234 0.156-0.359 0.156s-0.266-0.063-0.359-0.156l-7.281-7.281c-0.094-0.094-0.156-0.234-0.156-0.359s0.063-0.266 0.156-0.359l7.281-7.281c0.094-0.094 0.234-0.156 0.359-0.156s0.266 0.063 0.359 0.156l0.781 0.781c0.094 0.094 0.156 0.234 0.156 0.359s-0.063 0.266-0.156 0.359l-6.141 6.141 6.141 6.141c0.094 0.094 0.156 0.234 0.156 0.359zM15.797 21.5c0 0.125-0.063 0.266-0.156 0.359l-0.781 0.781c-0.094 0.094-0.234 0.156-0.359 0.156s-0.266-0.063-0.359-0.156l-7.281-7.281c-0.094-0.094-0.156-0.234-0.156-0.359s0.063-0.266 0.156-0.359l7.281-7.281c0.094-0.094 0.234-0.156 0.359-0.156s0.266 0.063 0.359 0.156l0.781 0.781c0.094 0.094 0.156 0.234 0.156 0.359s-0.063 0.266-0.156 0.359l-6.141 6.141 6.141 6.141c0.094 0.094 0.156 0.234 0.156 0.359z"></path></symbol>
  <symbol id="arrow_right" viewBox="0 0 15 28"><path d="M9.297 15c0 0.125-0.063 0.266-0.156 0.359l-7.281 7.281c-0.094 0.094-0.234 0.156-0.359 0.156s-0.266-0.063-0.359-0.156l-0.781-0.781c-0.094-0.094-0.156-0.234-0.156-0.359s0.063-0.266 0.156-0.359l6.141-6.141-6.141-6.141c-0.094-0.094-0.156-0.234-0.156-0.359s0.063-0.266 0.156-0.359l0.781-0.781c0.094-0.094 0.234-0.156 0.359-0.156s0.266 0.063 0.359 0.156l7.281 7.281c0.094 0.094 0.156 0.234 0.156 0.359zM15.297 15c0 0.125-0.063 0.266-0.156 0.359l-7.281 7.281c-0.094 0.094-0.234 0.156-0.359 0.156s-0.266-0.063-0.359-0.156l-0.781-0.781c-0.094-0.094-0.156-0.234-0.156-0.359s0.063-0.266 0.156-0.359l6.141-6.141-6.141-6.141c-0.094-0.094-0.156-0.234-0.156-0.359s0.063-0.266 0.156-0.359l0.781-0.781c0.094-0.094 0.234-0.156 0.359-0.156s0.266 0.063 0.359 0.156l7.281 7.281c0.094 0.094 0.156 0.234 0.156 0.359z"></path></symbol>
  <symbol id="angle-left" viewBox="0 0 11 28"><path d="M9.797 8.5c0 0.125-0.063 0.266-0.156 0.359l-6.141 6.141 6.141 6.141c0.094 0.094 0.156 0.234 0.156 0.359s-0.063 0.266-0.156 0.359l-0.781 0.781c-0.094 0.094-0.234 0.156-0.359 0.156s-0.266-0.063-0.359-0.156l-7.281-7.281c-0.094-0.094-0.156-0.234-0.156-0.359s0.063-0.266 0.156-0.359l7.281-7.281c0.094-0.094 0.234-0.156 0.359-0.156s0.266 0.063 0.359 0.156l0.781 0.781c0.094 0.094 0.156 0.219 0.156 0.359z"></path></symbol>
  <symbol id="angle-right" viewBox="0 0 9 28"><path d="M9.297 15c0 0.125-0.063 0.266-0.156 0.359l-7.281 7.281c-0.094 0.094-0.234 0.156-0.359 0.156s-0.266-0.063-0.359-0.156l-0.781-0.781c-0.094-0.094-0.156-0.219-0.156-0.359 0-0.125 0.063-0.266 0.156-0.359l6.141-6.141-6.141-6.141c-0.094-0.094-0.156-0.234-0.156-0.359s0.063-0.266 0.156-0.359l0.781-0.781c0.094-0.094 0.234-0.156 0.359-0.156s0.266 0.063 0.359 0.156l7.281 7.281c0.094 0.094 0.156 0.234 0.156 0.359z"></path></symbol>

  <symbol id="user" viewBox="0 0 15 17"><path d="M10.89,9.82a5.5,5.5,0,1,0-6.78,0A7.52,7.52,0,0,0,0,16.5V17H15v-.5A7.52,7.52,0,0,0,10.89,9.82ZM3,5.5A4.5,4.5,0,1,1,7.5,10,4.51,4.51,0,0,1,3,5.5ZM1,16a6.5,6.5,0,0,1,4.11-5.54,5.47,5.47,0,0,0,4.74,0A6.5,6.5,0,0,1,14,16Z"/></symbol>
  <symbol id="youtube" viewBox="0 0 461.001 461.001"><path d="M365.257,67.393H95.744C42.866,67.393,0,110.259,0,163.137v134.728 c0,52.878,42.866,95.744,95.744,95.744h269.513c52.878,0,95.744-42.866,95.744-95.744V163.137 C461.001,110.259,418.135,67.393,365.257,67.393z M300.506,237.056l-126.06,60.123c-3.359,1.602-7.239-0.847-7.239-4.568V168.607 c0-3.774,3.982-6.22,7.348-4.514l126.06,63.881C304.363,229.873,304.298,235.248,300.506,237.056z"/></symbol>
  <symbol id="facebook" viewBox="0 0 456.814 456.814"><path d="M441.11,252.677c10.468-11.99,15.704-26.169,15.704-42.54c0-14.846-5.432-27.692-16.259-38.547 c-10.849-10.854-23.695-16.278-38.541-16.278h-79.082c0.76-2.664,1.522-4.948,2.282-6.851c0.753-1.903,1.811-3.999,3.138-6.283 c1.328-2.285,2.283-3.999,2.852-5.139c3.425-6.468,6.047-11.801,7.857-15.985c1.807-4.192,3.606-9.9,5.42-17.133 c1.811-7.229,2.711-14.465,2.711-21.698c0-4.566-0.055-8.281-0.145-11.134c-0.089-2.855-0.574-7.139-1.423-12.85 c-0.862-5.708-2.006-10.467-3.43-14.272c-1.43-3.806-3.716-8.092-6.851-12.847c-3.142-4.764-6.947-8.613-11.424-11.565 c-4.476-2.95-10.184-5.424-17.131-7.421c-6.954-1.999-14.801-2.998-23.562-2.998c-4.948,0-9.227,1.809-12.847,5.426 c-3.806,3.806-7.047,8.564-9.709,14.272c-2.666,5.711-4.523,10.66-5.571,14.849c-1.047,4.187-2.238,9.994-3.565,17.415 c-1.719,7.998-2.998,13.752-3.86,17.273c-0.855,3.521-2.525,8.136-4.997,13.845c-2.477,5.713-5.424,10.278-8.851,13.706 c-6.28,6.28-15.891,17.701-28.837,34.259c-9.329,12.18-18.94,23.695-28.837,34.545c-9.899,10.852-17.131,16.466-21.698,16.847 c-4.755,0.38-8.848,2.331-12.275,5.854c-3.427,3.521-5.14,7.662-5.14,12.419v183.01c0,4.949,1.807,9.182,5.424,12.703 c3.615,3.525,7.898,5.38,12.847,5.571c6.661,0.191,21.698,4.374,45.111,12.566c14.654,4.941,26.12,8.706,34.4,11.272 c8.278,2.566,19.849,5.328,34.684,8.282c14.849,2.949,28.551,4.428,41.11,4.428h4.855h21.7h10.276 c25.321-0.38,44.061-7.806,56.247-22.268c11.036-13.135,15.697-30.361,13.99-51.679c7.422-7.042,12.565-15.984,15.416-26.836 c3.231-11.604,3.231-22.74,0-33.397c8.754-11.611,12.847-24.649,12.272-39.115C445.395,268.286,443.971,261.055,441.11,252.677z"/><path d="M100.5,191.864H18.276c-4.952,0-9.235,1.809-12.851,5.426C1.809,200.905,0,205.188,0,210.137v182.732 c0,4.942,1.809,9.227,5.426,12.847c3.619,3.611,7.902,5.421,12.851,5.421H100.5c4.948,0,9.229-1.81,12.847-5.421 c3.616-3.62,5.424-7.904,5.424-12.847V210.137c0-4.949-1.809-9.231-5.424-12.847C109.73,193.672,105.449,191.864,100.5,191.864z M67.665,369.308c-3.616,3.521-7.898,5.281-12.847,5.281c-5.14,0-9.471-1.76-12.99-5.281c-3.521-3.521-5.281-7.85-5.281-12.99 c0-4.948,1.759-9.232,5.281-12.847c3.52-3.617,7.85-5.428,12.99-5.428c4.949,0,9.231,1.811,12.847,5.428 c3.617,3.614,5.426,7.898,5.426,12.847C73.091,361.458,71.286,365.786,67.665,369.308z"/></symbol>
  <symbol id="success" viewBox="0 0 28 28"><path d="M26.109 8.844c0 0.391-0.156 0.781-0.438 1.062l-13.438 13.438c-0.281 0.281-0.672 0.438-1.062 0.438s-0.781-0.156-1.062-0.438l-7.781-7.781c-0.281-0.281-0.438-0.672-0.438-1.062s0.156-0.781 0.438-1.062l2.125-2.125c0.281-0.281 0.672-0.438 1.062-0.438s0.781 0.156 1.062 0.438l4.594 4.609 10.25-10.266c0.281-0.281 0.672-0.438 1.062-0.438s0.781 0.156 1.062 0.438l2.125 2.125c0.281 0.281 0.438 0.672 0.438 1.062z"></path></symbol>
  <symbol id="danger" viewBox="0 0 22 28"><path d="M20.281 20.656c0 0.391-0.156 0.781-0.438 1.062l-2.125 2.125c-0.281 0.281-0.672 0.438-1.062 0.438s-0.781-0.156-1.062-0.438l-4.594-4.594-4.594 4.594c-0.281 0.281-0.672 0.438-1.062 0.438s-0.781-0.156-1.062-0.438l-2.125-2.125c-0.281-0.281-0.438-0.672-0.438-1.062s0.156-0.781 0.438-1.062l4.594-4.594-4.594-4.594c-0.281-0.281-0.438-0.672-0.438-1.062s0.156-0.781 0.438-1.062l2.125-2.125c0.281-0.281 0.672-0.438 1.062-0.438s0.781 0.156 1.062 0.438l4.594 4.594 4.594-4.594c0.281-0.281 0.672-0.438 1.062-0.438s0.781 0.156 1.062 0.438l2.125 2.125c0.281 0.281 0.438 0.672 0.438 1.062s-0.156 0.781-0.438 1.062l-4.594 4.594 4.594 4.594c0.281 0.281 0.438 0.672 0.438 1.062z"></path></symbol>
  <symbol id="sort" viewBox="0 0 16 28"><path d="M16 17c0 0.266-0.109 0.516-0.297 0.703l-7 7c-0.187 0.187-0.438 0.297-0.703 0.297s-0.516-0.109-0.703-0.297l-7-7c-0.187-0.187-0.297-0.438-0.297-0.703 0-0.547 0.453-1 1-1h14c0.547 0 1 0.453 1 1zM16 11c0 0.547-0.453 1-1 1h-14c-0.547 0-1-0.453-1-1 0-0.266 0.109-0.516 0.297-0.703l7-7c0.187-0.187 0.438-0.297 0.703-0.297s0.516 0.109 0.703 0.297l7 7c0.187 0.187 0.297 0.438 0.297 0.703z"></path></symbol>
  <symbol id="plus" viewBox="0 0 8 8"><polygon points="8 3 5 3 5 0 3 0 3 3 0 3 0 5 3 5 3 8 5 8 5 5 8 5 8 3"/></symbol>
  <symbol id="minus" viewBox="0 0 8 2"><rect width="8" height="2"/></symbol>
  <symbol id="pdf" viewBox="0 0 24 28"><path d="M22.937 5.938c0.578 0.578 1.062 1.734 1.062 2.562v18c0 0.828-0.672 1.5-1.5 1.5h-21c-0.828 0-1.5-0.672-1.5-1.5v-25c0-0.828 0.672-1.5 1.5-1.5h14c0.828 0 1.984 0.484 2.562 1.062zM16 2.125v5.875h5.875c-0.094-0.266-0.234-0.531-0.344-0.641l-4.891-4.891c-0.109-0.109-0.375-0.25-0.641-0.344zM22 26v-16h-6.5c-0.828 0-1.5-0.672-1.5-1.5v-6.5h-12v24h20zM13.969 16.734c0.391 0.313 0.828 0.594 1.312 0.875 0.656-0.078 1.266-0.109 1.828-0.109 1.047 0 2.375 0.125 2.766 0.766 0.109 0.156 0.203 0.438 0.031 0.812-0.016 0.016-0.031 0.047-0.047 0.063v0.016c-0.047 0.281-0.281 0.594-1.109 0.594-1 0-2.516-0.453-3.828-1.141-2.172 0.234-4.453 0.719-6.125 1.297-1.609 2.75-2.844 4.094-3.781 4.094-0.156 0-0.297-0.031-0.438-0.109l-0.375-0.187c-0.047-0.016-0.063-0.047-0.094-0.078-0.078-0.078-0.141-0.25-0.094-0.562 0.156-0.719 1-1.922 2.938-2.938 0.125-0.078 0.281-0.031 0.359 0.094 0.016 0.016 0.031 0.047 0.031 0.063 0.484-0.797 1.047-1.813 1.672-3.078 0.703-1.406 1.25-2.781 1.625-4.094-0.5-1.703-0.656-3.453-0.375-4.484 0.109-0.391 0.344-0.625 0.656-0.625h0.344c0.234 0 0.422 0.078 0.547 0.234 0.187 0.219 0.234 0.562 0.141 1.062-0.016 0.047-0.031 0.094-0.063 0.125 0.016 0.047 0.016 0.078 0.016 0.125v0.469c-0.016 0.984-0.031 1.922-0.219 3 0.547 1.641 1.359 2.969 2.281 3.719zM4.969 23.156c0.469-0.219 1.141-0.891 2.141-2.469-1.172 0.906-1.906 1.937-2.141 2.469zM11.188 8.781c-0.156 0.438-0.156 1.188-0.031 2.063 0.047-0.25 0.078-0.484 0.109-0.688 0.031-0.266 0.078-0.484 0.109-0.672 0.016-0.047 0.031-0.078 0.063-0.125-0.016-0.016-0.016-0.047-0.031-0.078-0.016-0.281-0.109-0.453-0.203-0.562 0 0.031-0.016 0.047-0.016 0.063zM9.25 19.109c1.375-0.547 2.906-0.984 4.438-1.266-0.156-0.125-0.313-0.234-0.453-0.359-0.766-0.672-1.453-1.609-1.984-2.75-0.297 0.953-0.734 1.969-1.297 3.078-0.234 0.438-0.469 0.875-0.703 1.297zM19.344 18.859c-0.078-0.078-0.484-0.375-2.188-0.375 0.766 0.281 1.469 0.438 1.937 0.438 0.141 0 0.219 0 0.281-0.016 0-0.016-0.016-0.031-0.031-0.047z"></path></symbol>
  <symbol id="word" viewBox="0 0 24 28"><path d="M22.937 5.938c0.578 0.578 1.062 1.734 1.062 2.562v18c0 0.828-0.672 1.5-1.5 1.5h-21c-0.828 0-1.5-0.672-1.5-1.5v-25c0-0.828 0.672-1.5 1.5-1.5h14c0.828 0 1.984 0.484 2.562 1.062zM16 2.125v5.875h5.875c-0.094-0.266-0.234-0.531-0.344-0.641l-4.891-4.891c-0.109-0.109-0.375-0.25-0.641-0.344zM22 26v-16h-6.5c-0.828 0-1.5-0.672-1.5-1.5v-6.5h-12v24h20zM3.641 12v1.672h1.094l2.562 10.328h2.484l2-7.578c0.078-0.234 0.125-0.469 0.156-0.719 0.016-0.125 0.031-0.25 0.031-0.375h0.063l0.047 0.375c0.047 0.219 0.063 0.469 0.141 0.719l2 7.578h2.484l2.562-10.328h1.094v-1.672h-4.688v1.672h1.406l-1.547 6.844c-0.063 0.25-0.094 0.516-0.109 0.719l-0.031 0.328h-0.063c0-0.094-0.031-0.219-0.047-0.328-0.047-0.203-0.078-0.469-0.141-0.719l-2.25-8.516h-1.781l-2.25 8.516c-0.063 0.25-0.078 0.516-0.125 0.719l-0.063 0.328h-0.063l-0.031-0.328c-0.016-0.203-0.047-0.469-0.109-0.719l-1.547-6.844h1.406v-1.672h-4.688z"></path></symbol>
  <symbol id="exel" viewBox="0 0 24 28"><path d="M22.937 5.938c0.578 0.578 1.062 1.734 1.062 2.562v18c0 0.828-0.672 1.5-1.5 1.5h-21c-0.828 0-1.5-0.672-1.5-1.5v-25c0-0.828 0.672-1.5 1.5-1.5h14c0.828 0 1.984 0.484 2.562 1.062zM16 2.125v5.875h5.875c-0.094-0.266-0.234-0.531-0.344-0.641l-4.891-4.891c-0.109-0.109-0.375-0.25-0.641-0.344zM22 26v-16h-6.5c-0.828 0-1.5-0.672-1.5-1.5v-6.5h-12v24h20zM6.703 22.344v1.656h4.391v-1.656h-1.172l1.609-2.516c0.187-0.297 0.281-0.531 0.328-0.531h0.031c0.016 0.063 0.047 0.109 0.078 0.156 0.063 0.125 0.156 0.219 0.266 0.375l1.672 2.516h-1.188v1.656h4.547v-1.656h-1.062l-3-4.266 3.047-4.406h1.047v-1.672h-4.359v1.672h1.156l-1.609 2.484c-0.187 0.297-0.328 0.531-0.328 0.516h-0.031c-0.016-0.063-0.047-0.109-0.078-0.156-0.063-0.109-0.141-0.219-0.266-0.359l-1.656-2.484h1.188v-1.672h-4.531v1.672h1.062l2.953 4.25-3.031 4.422h-1.062z"></path></symbol>
  <symbol id="archive" viewBox="0 0 24 28"><path d="M10 6v-2h-2v2h2zM12 8v-2h-2v2h2zM10 10v-2h-2v2h2zM12 12v-2h-2v2h2zM22.937 5.938c0.578 0.578 1.062 1.734 1.062 2.562v18c0 0.828-0.672 1.5-1.5 1.5h-21c-0.828 0-1.5-0.672-1.5-1.5v-25c0-0.828 0.672-1.5 1.5-1.5h14c0.828 0 1.984 0.484 2.562 1.062zM16 2.125v5.875h5.875c-0.094-0.266-0.234-0.531-0.344-0.641l-4.891-4.891c-0.109-0.109-0.375-0.25-0.641-0.344zM22 26v-16h-6.5c-0.828 0-1.5-0.672-1.5-1.5v-6.5h-2v2h-2v-2h-8v24h20zM12.203 14.734c1.328 4.484 1.672 5.453 1.672 5.453 0.078 0.266 0.125 0.531 0.125 0.812 0 1.734-1.687 3-4 3s-4-1.266-4-3c0-0.281 0.047-0.547 0.125-0.812 0 0 0.328-0.969 1.875-6.188v-2h2v2h1.234c0.453 0 0.844 0.297 0.969 0.734zM10 22c1.109 0 2-0.453 2-1s-0.891-1-2-1-2 0.453-2 1 0.891 1 2 1z"></path></symbol>
  <symbol id="driver" viewBox="0 0 26 28"><path d="M20 21c0-0.547-0.453-1-1-1s-1 0.453-1 1 0.453 1 1 1 1-0.453 1-1zM24 21c0-0.547-0.453-1-1-1s-1 0.453-1 1 0.453 1 1 1 1-0.453 1-1zM26 17.5v5c0 0.828-0.672 1.5-1.5 1.5h-23c-0.828 0-1.5-0.672-1.5-1.5v-5c0-0.828 0.672-1.5 1.5-1.5h7.266l2.109 2.125c0.578 0.562 1.328 0.875 2.125 0.875s1.547-0.313 2.125-0.875l2.125-2.125h7.25c0.828 0 1.5 0.672 1.5 1.5zM20.922 8.609c0.156 0.375 0.078 0.812-0.219 1.094l-7 7c-0.187 0.203-0.453 0.297-0.703 0.297s-0.516-0.094-0.703-0.297l-7-7c-0.297-0.281-0.375-0.719-0.219-1.094 0.156-0.359 0.516-0.609 0.922-0.609h4v-7c0-0.547 0.453-1 1-1h4c0.547 0 1 0.453 1 1v7h4c0.406 0 0.766 0.25 0.922 0.609z"></path></symbol>

  <symbol id="calendar" viewBox="0 0 13 14"><path d="M10,2V0H9V2H4V0H3V2H0V14H13V2Zm2,11H1V6H12ZM1,5V3H3V4H4V3H9V4h1V3h2V5Z"/></symbol>
  <symbol id="action-end-ru" viewBox="0 0 415 415" fill="#df3838"><path d="M127 123.9c0-2.6-1.1-5.2-3.1-7.9l.2-.2a13 13 0 0 0 7.6 2.4 9.8 9.8 0 0 0 6.6-3.1c2.4-2.4 3.5-5.1 3.4-8.1-.1-3-1.5-5.8-4.1-8.4a18.5 18.5 0 0 0-12.7-5.8l-1.1 6.7c3.3.2 5.9 1.2 7.8 3.1 1.3 1.3 1.9 2.5 1.9 3.9 0 1.3-.6 2.6-1.8 3.8-1.5 1.5-3.2 2.2-4.9 1.9-1.7-.3-3.6-1.4-5.7-3.5l-1.9-1.9-4.8 4.8 2.1 2.1c2.1 2.1 3.4 4.1 3.7 6 .3 1.9-.3 3.6-1.8 5.1-3.3 3.3-6.9 3.1-10.6-.7a19.2 19.2 0 0 1-5-8.6l-5.2 5.2c.9 2.9 3.1 6.1 6.5 9.5 3.2 3.2 6.6 4.9 10.1 5.1 3.5.2 6.8-1.2 9.7-4.1a11 11 0 0 0 3.1-7.3zm29 12.4c.1-2.8-1.1-5.5-3.6-8a19.7 19.7 0 0 0-10.1-5.5l-2 6c3 .8 5.2 1.8 6.7 3.3 1.9 1.9 1.8 4-.5 6.3l-1.7 1.7-3.3-3.1c-2.9-2.6-5.7-4-8.3-4.2-2.6-.2-5.2 1-7.8 3.6a12.3 12.3 0 0 0-4 7.1c-.3 2.3.4 4.4 2.2 6.2a8.8 8.8 0 0 0 4.2 2.6c1.4.4 3.3.3 5.6-.3l.1.1-2.1 4.4 4.2 4.2 16.2-16.2a13 13 0 0 0 4.2-8.2zm-16.9 9.4a9 9 0 0 1-4.7 2.8c-1.6.3-2.9-.1-3.9-1.1-1.4-1.4-1.1-3.1.9-5.1 1.3-1.3 2.7-2 4-2.1 1.3-.1 2.6.5 4 1.8l1.9 1.7-2.2 2zm27.6 21.1l.2-.2a8 8 0 0 0 5.2 1.8c1.7-.1 3.2-.8 4.6-2.2 4.2-4.2 3.3-9.2-2.5-15l-8.4-8.4-24.1 24.1 8.5 8.5c3 3 6 4.8 8.8 5.2 2.9.4 5.4-.5 7.8-2.9a7 7 0 0 0 2.2-5.1c0-2-.8-3.9-2.3-5.8zm-5.6 4.5c-2.1 2.1-4.5 1.9-7.1-.7l-2.3-2.3 6.1-6.1 2.2 2.2a7.7 7.7 0 0 1 2.3 3.7c.2 1.1-.2 2.2-1.2 3.2zm2.7-11.6l-1.7-1.7 5.1-5.1 2.4 2.4c2.1 2.1 2.4 4 .8 5.5-1 1-2 1.4-3 1.1-1.2-.1-2.3-.9-3.6-2.2zm16.8 43.7l4.7-4.7a16 16 0 0 1-7.5-4 6 6 0 0 1-1.9-5c.2-1.9 1.4-3.9 3.5-6.1l11.6 11.6 3.1-3.1c3.5-3.5 5.4-6.9 5.8-10.3.4-3.4-.7-6.5-3.3-9.1a10.6 10.6 0 0 0-9.9-3.2 23 23 0 0 0-11.7 7 20 20 0 0 0-6.5 11.7c-.4 3.9.9 7.3 3.9 10.4 2.5 2.4 5.3 4.1 8.2 4.8zm8.1-27.1c1.4-.3 2.5-.1 3.3.7.9.9 1.1 2 .7 3.4-.4 1.4-1.5 3-3.2 4.8l-5.8-5.8c1.9-1.8 3.6-2.8 5-3.1zm31.6 26.6c.9-3.4.3-6.2-1.9-8.4-2.3-2.3-5.2-2.8-8.8-1.6l-.3-.3 2.1-4.1-4.4-4.5-34.8 34.8 5.8 5.8 9.9-9.9 3.2-3.9.3.3a8.5 8.5 0 0 0-.2 4.7c.3 1.3 1 2.4 2.1 3.5 2.2 2.2 5.1 2.9 8.6 1.9 3.5-.9 7.2-3.4 11.1-7.3 3.9-3.9 6.4-7.6 7.3-11zm-8.3-1.3c-.7 1.7-2.4 3.9-4.9 6.4-5.1 5.1-8.7 6.7-10.7 4.6-1.2-1.2-1.4-2.6-.7-4.3.7-1.7 2.4-3.9 5-6.6l.8-.8a19 19 0 0 1 6-4.4c1.5-.5 2.9-.3 4 .9 1.1 1 1.3 2.4.5 4.2zm39.7 27l-19.5 19.5-5.5-5.5 19.5-19.4-5.8-5.8-19.5 19.4-5.4-5.4 19.4-19.5-5.7-5.8-24.1 24.2 28.2 28.2 24.2-24.1zm2.2 42.1a6 6 0 0 1-1.9-5c.2-1.9 1.4-3.9 3.5-6.1l11.6 11.6 3.1-3.1c3.5-3.5 5.4-6.9 5.8-10.3.4-3.4-.7-6.5-3.3-9.1a10.6 10.6 0 0 0-9.9-3.2 23 23 0 0 0-11.7 7 20 20 0 0 0-6.5 11.7c-.4 3.9.9 7.3 3.9 10.4 2.6 2.6 5.4 4.2 8.3 5l4.7-4.7a18 18 0 0 1-7.6-4.2zm10.8-18.4c1.4-.3 2.5-.1 3.3.7.9.9 1.1 2 .7 3.4-.4 1.4-1.5 3-3.2 4.8l-5.8-5.8a13 13 0 0 1 5-3.1zm30.6 20l-9.4 9.4-6.5-6.5 9.4-9.4-5.8-5.8-24.1 24.1 5.8 5.8 10.1-10.1 6.5 6.5-10.1 10.1 5.8 5.8 24.1-24.1zm8.5 12l-2 6c3 .8 5.2 1.8 6.7 3.3 1.9 1.9 1.8 4-.5 6.3l-1.7 1.7-3.3-3.1c-2.9-2.6-5.7-4-8.3-4.2-2.6-.2-5.2 1-7.8 3.6a12.3 12.3 0 0 0-4 7.1c-.3 2.3.4 4.4 2.2 6.2a8.8 8.8 0 0 0 4.2 2.6c1.4.4 3.3.3 5.6-.3l.1.1-2.1 4.4 4.2 4.2 16.2-16.2c2.7-2.7 4.1-5.4 4.2-8.2.1-2.8-1.1-5.5-3.6-8a21.3 21.3 0 0 0-10.1-5.5zm-3.2 23a9 9 0 0 1-4.7 2.8c-1.6.3-2.9-.1-3.9-1.1-1.4-1.4-1.1-3.1.9-5.1 1.3-1.3 2.7-2 4-2.1 1.3-.1 2.6.5 4 1.8l1.9 1.7-2.2 2z" /><path d="M95 0L0 95l320 320 95-95L95 0zM7.1 95l88-88L408 320l-88 88L7.1 95z"/></symbol>
  <symbol id="truck" viewBox="0 0 29 28"><path d="M10 22c0-1.094-0.906-2-2-2s-2 0.906-2 2 0.906 2 2 2 2-0.906 2-2zM4 14h6v-4h-2.469c-0.063 0-0.297 0.094-0.344 0.141l-3.047 3.047c-0.047 0.047-0.141 0.281-0.141 0.344v0.469zM24 22c0-1.094-0.906-2-2-2s-2 0.906-2 2 0.906 2 2 2 2-0.906 2-2zM28 5v16c0 1.156-1.219 1-2 1 0 2.203-1.797 4-4 4s-4-1.797-4-4h-6c0 2.203-1.797 4-4 4s-4-1.797-4-4h-1c-0.781 0-2 0.156-2-1 0-0.547 0.453-1 1-1v-5c0-1.109-0.156-2.344 0.703-3.203l3.094-3.094c0.391-0.391 1.141-0.703 1.703-0.703h2.5v-3c0-0.547 0.453-1 1-1h16c0.547 0 1 0.453 1 1z"></path></symbol>
  <symbol id="text" viewBox="0 0 24 28"><path d="M22.937 5.938c0.578 0.578 1.062 1.734 1.062 2.562v18c0 0.828-0.672 1.5-1.5 1.5h-21c-0.828 0-1.5-0.672-1.5-1.5v-25c0-0.828 0.672-1.5 1.5-1.5h14c0.828 0 1.984 0.484 2.562 1.062zM16 2.125v5.875h5.875c-0.094-0.266-0.234-0.531-0.344-0.641l-4.891-4.891c-0.109-0.109-0.375-0.25-0.641-0.344zM22 26v-16h-6.5c-0.828 0-1.5-0.672-1.5-1.5v-6.5h-12v24h20zM6 12.5c0-0.281 0.219-0.5 0.5-0.5h11c0.281 0 0.5 0.219 0.5 0.5v1c0 0.281-0.219 0.5-0.5 0.5h-11c-0.281 0-0.5-0.219-0.5-0.5v-1zM17.5 16c0.281 0 0.5 0.219 0.5 0.5v1c0 0.281-0.219 0.5-0.5 0.5h-11c-0.281 0-0.5-0.219-0.5-0.5v-1c0-0.281 0.219-0.5 0.5-0.5h11zM17.5 20c0.281 0 0.5 0.219 0.5 0.5v1c0 0.281-0.219 0.5-0.5 0.5h-11c-0.281 0-0.5-0.219-0.5-0.5v-1c0-0.281 0.219-0.5 0.5-0.5h11z"></path></symbol>
  <symbol id="floppy" viewBox="0 0 24 28"><path d="M6 24h12v-6h-12v6zM20 24h2v-14c0-0.297-0.266-0.938-0.469-1.141l-4.391-4.391c-0.219-0.219-0.828-0.469-1.141-0.469v6.5c0 0.828-0.672 1.5-1.5 1.5h-9c-0.828 0-1.5-0.672-1.5-1.5v-6.5h-2v20h2v-6.5c0-0.828 0.672-1.5 1.5-1.5h13c0.828 0 1.5 0.672 1.5 1.5v6.5zM14 9.5v-5c0-0.266-0.234-0.5-0.5-0.5h-3c-0.266 0-0.5 0.234-0.5 0.5v5c0 0.266 0.234 0.5 0.5 0.5h3c0.266 0 0.5-0.234 0.5-0.5zM24 10v14.5c0 0.828-0.672 1.5-1.5 1.5h-21c-0.828 0-1.5-0.672-1.5-1.5v-21c0-0.828 0.672-1.5 1.5-1.5h14.5c0.828 0 1.969 0.469 2.562 1.062l4.375 4.375c0.594 0.594 1.062 1.734 1.062 2.562z"></path></symbol>
  <symbol id="folder" viewBox="0 0 30 28"><path d="M27.828 14.547c0-0.438-0.484-0.547-0.828-0.547h-17c-0.828 0-1.922 0.516-2.453 1.156l-4.594 5.672c-0.141 0.187-0.281 0.391-0.281 0.625 0 0.438 0.484 0.547 0.828 0.547h17c0.828 0 1.922-0.516 2.453-1.172l4.594-5.672c0.141-0.172 0.281-0.375 0.281-0.609zM10 12h12v-2.5c0-0.828-0.672-1.5-1.5-1.5h-9c-0.828 0-1.5-0.672-1.5-1.5v-1c0-0.828-0.672-1.5-1.5-1.5h-5c-0.828 0-1.5 0.672-1.5 1.5v13.328l4-4.922c0.906-1.109 2.578-1.906 4-1.906zM29.828 14.547c0 0.688-0.297 1.344-0.719 1.875l-4.609 5.672c-0.891 1.094-2.594 1.906-4 1.906h-17c-1.922 0-3.5-1.578-3.5-3.5v-15c0-1.922 1.578-3.5 3.5-3.5h5c1.922 0 3.5 1.578 3.5 3.5v0.5h8.5c1.922 0 3.5 1.578 3.5 3.5v2.5h3c1.062 0 2.125 0.484 2.594 1.484 0.156 0.328 0.234 0.688 0.234 1.062z"></path></symbol>
  <symbol id="video" viewBox="0 0 28 28"><path d="M28 5.5v17c0 0.406-0.25 0.766-0.609 0.922-0.125 0.047-0.266 0.078-0.391 0.078-0.266 0-0.516-0.094-0.703-0.297l-6.297-6.297v2.594c0 2.484-2.016 4.5-4.5 4.5h-11c-2.484 0-4.5-2.016-4.5-4.5v-11c0-2.484 2.016-4.5 4.5-4.5h11c2.484 0 4.5 2.016 4.5 4.5v2.578l6.297-6.281c0.187-0.203 0.438-0.297 0.703-0.297 0.125 0 0.266 0.031 0.391 0.078 0.359 0.156 0.609 0.516 0.609 0.922z"></path></symbol>
  <symbol id="file" viewBox="0 0 24 28"><path d="M22.937 5.938c0.578 0.578 1.062 1.734 1.062 2.562v18c0 0.828-0.672 1.5-1.5 1.5h-21c-0.828 0-1.5-0.672-1.5-1.5v-25c0-0.828 0.672-1.5 1.5-1.5h14c0.828 0 1.984 0.484 2.562 1.062zM16 2.125v5.875h5.875c-0.094-0.266-0.234-0.531-0.344-0.641l-4.891-4.891c-0.109-0.109-0.375-0.25-0.641-0.344zM22 26v-16h-6.5c-0.828 0-1.5-0.672-1.5-1.5v-6.5h-12v24h20z"></path></symbol>
  <symbol id="certificate" viewBox="0 0 24 28"><path d="M21.5 14l2.156 2.109c0.297 0.281 0.406 0.703 0.313 1.094-0.109 0.391-0.422 0.703-0.812 0.797l-2.938 0.75 0.828 2.906c0.109 0.391 0 0.812-0.297 1.094-0.281 0.297-0.703 0.406-1.094 0.297l-2.906-0.828-0.75 2.938c-0.094 0.391-0.406 0.703-0.797 0.812-0.094 0.016-0.203 0.031-0.297 0.031-0.297 0-0.594-0.125-0.797-0.344l-2.109-2.156-2.109 2.156c-0.281 0.297-0.703 0.406-1.094 0.313-0.406-0.109-0.703-0.422-0.797-0.812l-0.75-2.938-2.906 0.828c-0.391 0.109-0.812 0-1.094-0.297-0.297-0.281-0.406-0.703-0.297-1.094l0.828-2.906-2.938-0.75c-0.391-0.094-0.703-0.406-0.812-0.797-0.094-0.391 0.016-0.812 0.313-1.094l2.156-2.109-2.156-2.109c-0.297-0.281-0.406-0.703-0.313-1.094 0.109-0.391 0.422-0.703 0.812-0.797l2.938-0.75-0.828-2.906c-0.109-0.391 0-0.812 0.297-1.094 0.281-0.297 0.703-0.406 1.094-0.297l2.906 0.828 0.75-2.938c0.094-0.391 0.406-0.703 0.797-0.797 0.391-0.109 0.812 0 1.094 0.297l2.109 2.172 2.109-2.172c0.281-0.297 0.688-0.406 1.094-0.297 0.391 0.094 0.703 0.406 0.797 0.797l0.75 2.938 2.906-0.828c0.391-0.109 0.812 0 1.094 0.297 0.297 0.281 0.406 0.703 0.297 1.094l-0.828 2.906 2.938 0.75c0.391 0.094 0.703 0.406 0.812 0.797 0.094 0.391-0.016 0.812-0.313 1.094z"></path></symbol>
  <symbol id="solution_1" viewBox="0 0 26 28"><path d="M14 12.938v9.063c0 2.172-1.828 4-4 4s-4-1.828-4-4c0-0.547 0.453-1 1-1s1 0.453 1 1c0 1.047 0.953 2 2 2s2-0.953 2-2v-9.063c0.328-0.109 0.656-0.172 1-0.172s0.672 0.063 1 0.172zM26 13.359c0 0.266-0.234 0.5-0.5 0.5-0.141 0-0.25-0.063-0.359-0.156-0.906-0.844-1.75-1.437-3.047-1.437-1.484 0-2.766 0.922-3.609 2.094-0.187 0.266-0.328 0.547-0.5 0.812-0.109 0.172-0.234 0.266-0.438 0.266-0.219 0-0.344-0.094-0.453-0.266-0.172-0.266-0.313-0.547-0.5-0.812-0.844-1.172-2.109-2.094-3.594-2.094s-2.75 0.922-3.594 2.094c-0.187 0.266-0.328 0.547-0.5 0.812-0.109 0.172-0.234 0.266-0.453 0.266-0.203 0-0.328-0.094-0.438-0.266-0.172-0.266-0.313-0.547-0.5-0.812-0.844-1.172-2.125-2.094-3.609-2.094-1.297 0-2.141 0.594-3.047 1.437-0.109 0.094-0.219 0.156-0.359 0.156-0.266 0-0.5-0.234-0.5-0.5 0-0.047 0-0.078 0.016-0.109 1.437-5.906 7.141-9.25 12.984-9.25 5.812 0 11.578 3.344 12.984 9.25 0.016 0.031 0.016 0.063 0.016 0.109zM14 2v1.531c-0.328-0.016-0.672-0.031-1-0.031s-0.672 0.016-1 0.031v-1.531c0-0.547 0.453-1 1-1s1 0.453 1 1z"></path></symbol>
  <symbol id="solution_2" viewBox="0 0 26 28"><path d="M22 15.5v7.5c0 0.547-0.453 1-1 1h-6v-6h-4v6h-6c-0.547 0-1-0.453-1-1v-7.5c0-0.031 0.016-0.063 0.016-0.094l8.984-7.406 8.984 7.406c0.016 0.031 0.016 0.063 0.016 0.094zM25.484 14.422l-0.969 1.156c-0.078 0.094-0.203 0.156-0.328 0.172h-0.047c-0.125 0-0.234-0.031-0.328-0.109l-10.813-9.016-10.813 9.016c-0.109 0.078-0.234 0.125-0.375 0.109-0.125-0.016-0.25-0.078-0.328-0.172l-0.969-1.156c-0.172-0.203-0.141-0.531 0.063-0.703l11.234-9.359c0.656-0.547 1.719-0.547 2.375 0l3.813 3.187v-3.047c0-0.281 0.219-0.5 0.5-0.5h3c0.281 0 0.5 0.219 0.5 0.5v6.375l3.422 2.844c0.203 0.172 0.234 0.5 0.063 0.703z"></path></symbol>
  <symbol id="solution_3" viewBox="0 0 28 28"><path d="M20 16h4.766c-0.187 0.203-0.313 0.313-0.344 0.344l-9.734 9.375c-0.187 0.187-0.438 0.281-0.688 0.281s-0.5-0.094-0.688-0.281l-9.75-9.406c-0.031-0.016-0.156-0.125-0.328-0.313h5.766c0.453 0 0.859-0.313 0.969-0.75l1.094-4.391 2.969 10.422c0.125 0.422 0.516 0.719 0.969 0.719v0c0.438 0 0.828-0.297 0.953-0.719l2.281-7.578 0.875 1.75c0.172 0.328 0.516 0.547 0.891 0.547zM28 9.312c0 1.797-0.781 3.437-1.609 4.688h-5.766l-1.734-3.453c-0.172-0.359-0.578-0.578-0.969-0.547-0.422 0.047-0.766 0.313-0.875 0.719l-2.016 6.719-3.063-10.719c-0.125-0.422-0.516-0.719-0.984-0.719-0.453 0-0.844 0.313-0.953 0.75l-1.813 7.25h-6.609c-0.828-1.25-1.609-2.891-1.609-4.688 0-4.578 2.797-7.313 7.469-7.313 2.734 0 5.297 2.156 6.531 3.375 1.234-1.219 3.797-3.375 6.531-3.375 4.672 0 7.469 2.734 7.469 7.313z"></path></symbol>
  <symbol id="solution_4" viewBox="0 0 32 28"><path d="M7.5 17c0-1.375-1.125-2.5-2.5-2.5s-2.5 1.125-2.5 2.5 1.125 2.5 2.5 2.5 2.5-1.125 2.5-2.5zM8.062 12h15.875l-1.391-5.578c-0.047-0.172-0.359-0.422-0.547-0.422h-12c-0.187 0-0.5 0.25-0.547 0.422zM29.5 17c0-1.375-1.125-2.5-2.5-2.5s-2.5 1.125-2.5 2.5 1.125 2.5 2.5 2.5 2.5-1.125 2.5-2.5zM32 15.5v6c0 0.281-0.219 0.5-0.5 0.5h-1.5v2c0 1.656-1.344 3-3 3s-3-1.344-3-3v-2h-16v2c0 1.656-1.344 3-3 3s-3-1.344-3-3v-2h-1.5c-0.281 0-0.5-0.219-0.5-0.5v-6c0-1.937 1.563-3.5 3.5-3.5h0.438l1.641-6.547c0.484-1.969 2.391-3.453 4.422-3.453h12c2.031 0 3.938 1.484 4.422 3.453l1.641 6.547h0.438c1.937 0 3.5 1.563 3.5 3.5z"></path></symbol>
  <symbol id="solution_5" viewBox="0 0 26 28"><path d="M6 23c0-0.547-0.453-1-1-1s-1 0.453-1 1 0.453 1 1 1 1-0.453 1-1zM16.063 16.438l-10.656 10.656c-0.359 0.359-0.875 0.578-1.406 0.578s-1.047-0.219-1.422-0.578l-1.656-1.687c-0.375-0.359-0.594-0.875-0.594-1.406s0.219-1.047 0.594-1.422l10.641-10.641c0.812 2.047 2.453 3.687 4.5 4.5zM25.969 9.641c0 0.516-0.187 1.156-0.359 1.656-0.984 2.781-3.656 4.703-6.609 4.703-3.859 0-7-3.141-7-7s3.141-7 7-7c1.141 0 2.625 0.344 3.578 0.984 0.156 0.109 0.25 0.25 0.25 0.438 0 0.172-0.109 0.344-0.25 0.438l-4.578 2.641v3.5l3.016 1.672c0.516-0.297 4.141-2.578 4.453-2.578s0.5 0.234 0.5 0.547z"></path></symbol>
  <symbol id="solution_6" viewBox="0 0 26 28"><path d="M10 24c0 1.094-0.906 2-2 2s-2-0.906-2-2 0.906-2 2-2 2 0.906 2 2zM24 24c0 1.094-0.906 2-2 2s-2-0.906-2-2 0.906-2 2-2 2 0.906 2 2zM26 7v8c0 0.5-0.391 0.938-0.891 1l-16.312 1.906c0.078 0.359 0.203 0.719 0.203 1.094 0 0.359-0.219 0.688-0.375 1h14.375c0.547 0 1 0.453 1 1s-0.453 1-1 1h-16c-0.547 0-1-0.453-1-1 0-0.484 0.703-1.656 0.953-2.141l-2.766-12.859h-3.187c-0.547 0-1-0.453-1-1s0.453-1 1-1h4c1.047 0 1.078 1.25 1.234 2h18.766c0.547 0 1 0.453 1 1z"></path></symbol>
  <symbol id="solution_7" viewBox="0 0 22 28"><path d="M6 20.5v1c0 0.266-0.234 0.5-0.5 0.5h-1c-0.266 0-0.5-0.234-0.5-0.5v-1c0-0.266 0.234-0.5 0.5-0.5h1c0.266 0 0.5 0.234 0.5 0.5zM6 16.5v1c0 0.266-0.234 0.5-0.5 0.5h-1c-0.266 0-0.5-0.234-0.5-0.5v-1c0-0.266 0.234-0.5 0.5-0.5h1c0.266 0 0.5 0.234 0.5 0.5zM10 16.5v1c0 0.266-0.234 0.5-0.5 0.5h-1c-0.266 0-0.5-0.234-0.5-0.5v-1c0-0.266 0.234-0.5 0.5-0.5h1c0.266 0 0.5 0.234 0.5 0.5zM6 12.5v1c0 0.266-0.234 0.5-0.5 0.5h-1c-0.266 0-0.5-0.234-0.5-0.5v-1c0-0.266 0.234-0.5 0.5-0.5h1c0.266 0 0.5 0.234 0.5 0.5zM18 20.5v1c0 0.266-0.234 0.5-0.5 0.5h-1c-0.266 0-0.5-0.234-0.5-0.5v-1c0-0.266 0.234-0.5 0.5-0.5h1c0.266 0 0.5 0.234 0.5 0.5zM14 16.5v1c0 0.266-0.234 0.5-0.5 0.5h-1c-0.266 0-0.5-0.234-0.5-0.5v-1c0-0.266 0.234-0.5 0.5-0.5h1c0.266 0 0.5 0.234 0.5 0.5zM10 12.5v1c0 0.266-0.234 0.5-0.5 0.5h-1c-0.266 0-0.5-0.234-0.5-0.5v-1c0-0.266 0.234-0.5 0.5-0.5h1c0.266 0 0.5 0.234 0.5 0.5zM6 8.5v1c0 0.266-0.234 0.5-0.5 0.5h-1c-0.266 0-0.5-0.234-0.5-0.5v-1c0-0.266 0.234-0.5 0.5-0.5h1c0.266 0 0.5 0.234 0.5 0.5zM18 16.5v1c0 0.266-0.234 0.5-0.5 0.5h-1c-0.266 0-0.5-0.234-0.5-0.5v-1c0-0.266 0.234-0.5 0.5-0.5h1c0.266 0 0.5 0.234 0.5 0.5zM14 12.5v1c0 0.266-0.234 0.5-0.5 0.5h-1c-0.266 0-0.5-0.234-0.5-0.5v-1c0-0.266 0.234-0.5 0.5-0.5h1c0.266 0 0.5 0.234 0.5 0.5zM10 8.5v1c0 0.266-0.234 0.5-0.5 0.5h-1c-0.266 0-0.5-0.234-0.5-0.5v-1c0-0.266 0.234-0.5 0.5-0.5h1c0.266 0 0.5 0.234 0.5 0.5zM6 4.5v1c0 0.266-0.234 0.5-0.5 0.5h-1c-0.266 0-0.5-0.234-0.5-0.5v-1c0-0.266 0.234-0.5 0.5-0.5h1c0.266 0 0.5 0.234 0.5 0.5zM18 12.5v1c0 0.266-0.234 0.5-0.5 0.5h-1c-0.266 0-0.5-0.234-0.5-0.5v-1c0-0.266 0.234-0.5 0.5-0.5h1c0.266 0 0.5 0.234 0.5 0.5zM14 8.5v1c0 0.266-0.234 0.5-0.5 0.5h-1c-0.266 0-0.5-0.234-0.5-0.5v-1c0-0.266 0.234-0.5 0.5-0.5h1c0.266 0 0.5 0.234 0.5 0.5zM10 4.5v1c0 0.266-0.234 0.5-0.5 0.5h-1c-0.266 0-0.5-0.234-0.5-0.5v-1c0-0.266 0.234-0.5 0.5-0.5h1c0.266 0 0.5 0.234 0.5 0.5zM18 8.5v1c0 0.266-0.234 0.5-0.5 0.5h-1c-0.266 0-0.5-0.234-0.5-0.5v-1c0-0.266 0.234-0.5 0.5-0.5h1c0.266 0 0.5 0.234 0.5 0.5zM14 4.5v1c0 0.266-0.234 0.5-0.5 0.5h-1c-0.266 0-0.5-0.234-0.5-0.5v-1c0-0.266 0.234-0.5 0.5-0.5h1c0.266 0 0.5 0.234 0.5 0.5zM18 4.5v1c0 0.266-0.234 0.5-0.5 0.5h-1c-0.266 0-0.5-0.234-0.5-0.5v-1c0-0.266 0.234-0.5 0.5-0.5h1c0.266 0 0.5 0.234 0.5 0.5zM14 26h6v-24h-18v24h6v-3.5c0-0.266 0.234-0.5 0.5-0.5h5c0.266 0 0.5 0.234 0.5 0.5v3.5zM22 1v26c0 0.547-0.453 1-1 1h-20c-0.547 0-1-0.453-1-1v-26c0-0.547 0.453-1 1-1h20c0.547 0 1 0.453 1 1z"></path></symbol>
  <symbol id="solution_8" viewBox="0 0 36 28"><path d="M27.719 13.062l0.281 4.937c0.125 2.203-4.484 4-10 4s-10.125-1.797-10-4l0.281-4.937 8.969 2.828c0.25 0.078 0.5 0.109 0.75 0.109s0.5-0.031 0.75-0.109zM36 8c0 0.219-0.141 0.406-0.344 0.484l-17.5 5.5c-0.063 0.016-0.109 0.016-0.156 0.016s-0.094 0-0.156-0.016l-10.187-3.219c-0.891 0.703-1.516 2.422-1.641 4.531 0.594 0.344 0.984 0.969 0.984 1.703 0 0.703-0.359 1.313-0.906 1.672l0.906 6.766c0.016 0.141-0.031 0.281-0.125 0.391s-0.234 0.172-0.375 0.172h-3c-0.141 0-0.281-0.063-0.375-0.172s-0.141-0.25-0.125-0.391l0.906-6.766c-0.547-0.359-0.906-0.969-0.906-1.672 0-0.75 0.422-1.391 1.016-1.734 0.094-1.828 0.562-3.797 1.531-5.156l-5.203-1.625c-0.203-0.078-0.344-0.266-0.344-0.484s0.141-0.406 0.344-0.484l17.5-5.5c0.063-0.016 0.109-0.016 0.156-0.016s0.094 0 0.156 0.016l17.5 5.5c0.203 0.078 0.344 0.266 0.344 0.484z"></path></symbol>
  <symbol id="solution_9" viewBox="0 0 30 28"><path d="M15 0l15 6v2h-2c0 0.547-0.484 1-1.078 1h-23.844c-0.594 0-1.078-0.453-1.078-1h-2v-2zM4 10h4v12h2v-12h4v12h2v-12h4v12h2v-12h4v12h0.922c0.594 0 1.078 0.453 1.078 1v1h-26v-1c0-0.547 0.484-1 1.078-1h0.922v-12zM28.922 25c0.594 0 1.078 0.453 1.078 1v2h-30v-2c0-0.547 0.484-1 1.078-1h27.844z"></path></symbol>
  <symbol id="check" viewBox="0 0 26 28"><path d="M22 14.531v4.969c0 2.484-2.016 4.5-4.5 4.5h-13c-2.484 0-4.5-2.016-4.5-4.5v-13c0-2.484 2.016-4.5 4.5-4.5h13c0.625 0 1.25 0.125 1.828 0.391 0.141 0.063 0.25 0.203 0.281 0.359 0.031 0.172-0.016 0.328-0.141 0.453l-0.766 0.766c-0.094 0.094-0.234 0.156-0.359 0.156-0.047 0-0.094-0.016-0.141-0.031-0.234-0.063-0.469-0.094-0.703-0.094h-13c-1.375 0-2.5 1.125-2.5 2.5v13c0 1.375 1.125 2.5 2.5 2.5h13c1.375 0 2.5-1.125 2.5-2.5v-3.969c0-0.125 0.047-0.25 0.141-0.344l1-1c0.109-0.109 0.234-0.156 0.359-0.156 0.063 0 0.125 0.016 0.187 0.047 0.187 0.078 0.313 0.25 0.313 0.453zM25.609 6.891l-12.719 12.719c-0.5 0.5-1.281 0.5-1.781 0l-6.719-6.719c-0.5-0.5-0.5-1.281 0-1.781l1.719-1.719c0.5-0.5 1.281-0.5 1.781 0l4.109 4.109 10.109-10.109c0.5-0.5 1.281-0.5 1.781 0l1.719 1.719c0.5 0.5 0.5 1.281 0 1.781z"></path></symbol>
  <symbol id="list" viewBox="0 0 28 28"><path d="M6 22c0 1.656-1.344 3-3 3s-3-1.344-3-3 1.344-3 3-3 3 1.344 3 3zM6 14c0 1.656-1.344 3-3 3s-3-1.344-3-3 1.344-3 3-3 3 1.344 3 3zM28 20.5v3c0 0.266-0.234 0.5-0.5 0.5h-19c-0.266 0-0.5-0.234-0.5-0.5v-3c0-0.266 0.234-0.5 0.5-0.5h19c0.266 0 0.5 0.234 0.5 0.5zM6 6c0 1.656-1.344 3-3 3s-3-1.344-3-3 1.344-3 3-3 3 1.344 3 3zM28 12.5v3c0 0.266-0.234 0.5-0.5 0.5h-19c-0.266 0-0.5-0.234-0.5-0.5v-3c0-0.266 0.234-0.5 0.5-0.5h19c0.266 0 0.5 0.234 0.5 0.5zM28 4.5v3c0 0.266-0.234 0.5-0.5 0.5h-19c-0.266 0-0.5-0.234-0.5-0.5v-3c0-0.266 0.234-0.5 0.5-0.5h19c0.266 0 0.5 0.234 0.5 0.5z"></path></symbol>
  <symbol id="hands" viewBox="0 0 36 28"><path d="M3 18c1.313 0 1.313-2 0-2s-1.313 2 0 2zM26.016 17.094c-1.234-1.609-2.438-3.25-3.844-4.719l-1.953 2.188c-1.719 1.953-4.797 1.906-6.469-0.094-1.188-1.437-1.188-3.5 0.031-4.922l2.766-3.219c-0.969-0.5-2.141-0.328-3.187-0.328-0.922 0-1.813 0.375-2.469 1.031l-2.469 2.469h-2.422v8.5c0.688 0 1.312-0.094 1.859 0.438l4.641 4.562c0.953 0.922 2.187 1.734 3.547 1.734 0.703 0 1.453-0.234 1.953-0.734 1.172 0.406 2.531-0.25 2.891-1.453 0.75 0.063 1.437-0.172 1.984-0.688 0.359-0.328 0.828-0.984 0.781-1.5 0.141 0.141 0.484 0.156 0.672 0.156 1.859 0 2.828-1.953 1.687-3.422zM28.5 18h1.5v-8h-1.453l-2.453-2.812c-0.656-0.75-1.641-1.188-2.641-1.188h-2.609c-0.875 0-1.719 0.391-2.281 1.047l-3.266 3.797c-0.578 0.688-0.578 1.656-0.016 2.344 0.891 1.062 2.531 1.078 3.453 0.047l3.016-3.406c0.719-0.797 2.031-0.047 1.703 0.969 0.594 0.688 1.234 1.359 1.813 2.047 0.781 0.969 1.531 1.984 2.297 2.969 0.484 0.625 0.844 1.375 0.938 2.188zM33 18c1.313 0 1.313-2 0-2s-1.313 2 0 2zM36 9v10c0 0.547-0.453 1-1 1h-6.781c-0.562 1.359-1.797 2.266-3.234 2.469-0.672 0.984-1.703 1.734-2.859 1.984-0.859 1.094-2.25 1.75-3.641 1.656-2.578 1.453-5.484 0.187-7.406-1.703l-4.484-4.406h-5.594c-0.547 0-1-0.453-1-1v-10.5c0-0.547 0.453-1 1-1h6.578c1.813-1.813 3.062-3.5 5.781-3.5h1.828c1.016 0 2 0.313 2.828 0.875 0.828-0.562 1.813-0.875 2.828-0.875h2.609c2.969 0 4.203 1.937 6 4h5.547c0.547 0 1 0.453 1 1z"></path></symbol>
  <symbol id="shield" viewBox="0 0 20 28"><path d="M17 15v-10h-7v17.766c0.797-0.422 2.078-1.156 3.328-2.141 1.672-1.313 3.672-3.359 3.672-5.625zM20 3v12c0 6.578-9.203 10.734-9.594 10.906-0.125 0.063-0.266 0.094-0.406 0.094s-0.281-0.031-0.406-0.094c-0.391-0.172-9.594-4.328-9.594-10.906v-12c0-0.547 0.453-1 1-1h18c0.547 0 1 0.453 1 1z"></path></symbol>
  <symbol id="clock" viewBox="0 0 24 28"><path d="M14 8.5v7c0 0.281-0.219 0.5-0.5 0.5h-5c-0.281 0-0.5-0.219-0.5-0.5v-1c0-0.281 0.219-0.5 0.5-0.5h3.5v-5.5c0-0.281 0.219-0.5 0.5-0.5h1c0.281 0 0.5 0.219 0.5 0.5zM20.5 14c0-4.688-3.813-8.5-8.5-8.5s-8.5 3.813-8.5 8.5 3.813 8.5 8.5 8.5 8.5-3.813 8.5-8.5zM24 14c0 6.625-5.375 12-12 12s-12-5.375-12-12 5.375-12 12-12 12 5.375 12 12z"></path></symbol>
  <symbol id="user2" viewBox="0 0 20 28"><path d="M20 21.859c0 2.281-1.5 4.141-3.328 4.141h-13.344c-1.828 0-3.328-1.859-3.328-4.141 0-4.109 1.016-8.859 5.109-8.859 1.266 1.234 2.984 2 4.891 2s3.625-0.766 4.891-2c4.094 0 5.109 4.75 5.109 8.859zM16 8c0 3.313-2.688 6-6 6s-6-2.688-6-6 2.688-6 6-6 6 2.688 6 6z"></path></symbol>
  <symbol id="marker" viewBox="0 0 16 28"><path d="M12 10c0-2.203-1.797-4-4-4s-4 1.797-4 4 1.797 4 4 4 4-1.797 4-4zM16 10c0 0.953-0.109 1.937-0.516 2.797l-5.688 12.094c-0.328 0.688-1.047 1.109-1.797 1.109s-1.469-0.422-1.781-1.109l-5.703-12.094c-0.406-0.859-0.516-1.844-0.516-2.797 0-4.422 3.578-8 8-8s8 3.578 8 8z"></path></symbol>
  <symbol id="users" viewBox="0 0 30 28"><path d="M9.266 14c-1.625 0.047-3.094 0.75-4.141 2h-2.094c-1.563 0-3.031-0.75-3.031-2.484 0-1.266-0.047-5.516 1.937-5.516 0.328 0 1.953 1.328 4.062 1.328 0.719 0 1.406-0.125 2.078-0.359-0.047 0.344-0.078 0.688-0.078 1.031 0 1.422 0.453 2.828 1.266 4zM26 23.953c0 2.531-1.672 4.047-4.172 4.047h-13.656c-2.5 0-4.172-1.516-4.172-4.047 0-3.531 0.828-8.953 5.406-8.953 0.531 0 2.469 2.172 5.594 2.172s5.063-2.172 5.594-2.172c4.578 0 5.406 5.422 5.406 8.953zM10 4c0 2.203-1.797 4-4 4s-4-1.797-4-4 1.797-4 4-4 4 1.797 4 4zM21 10c0 3.313-2.688 6-6 6s-6-2.688-6-6 2.688-6 6-6 6 2.688 6 6zM30 13.516c0 1.734-1.469 2.484-3.031 2.484h-2.094c-1.047-1.25-2.516-1.953-4.141-2 0.812-1.172 1.266-2.578 1.266-4 0-0.344-0.031-0.688-0.078-1.031 0.672 0.234 1.359 0.359 2.078 0.359 2.109 0 3.734-1.328 4.062-1.328 1.984 0 1.937 4.25 1.937 5.516zM28 4c0 2.203-1.797 4-4 4s-4-1.797-4-4 1.797-4 4-4 4 1.797 4 4z"></path></symbol>
  <symbol id="gamepad" viewBox="0 0 30 28"><path d="M13 17v-2c0-0.281-0.219-0.5-0.5-0.5h-3v-3c0-0.281-0.219-0.5-0.5-0.5h-2c-0.281 0-0.5 0.219-0.5 0.5v3h-3c-0.281 0-0.5 0.219-0.5 0.5v2c0 0.281 0.219 0.5 0.5 0.5h3v3c0 0.281 0.219 0.5 0.5 0.5h2c0.281 0 0.5-0.219 0.5-0.5v-3h3c0.281 0 0.5-0.219 0.5-0.5zM22 18c0-1.109-0.891-2-2-2s-2 0.891-2 2 0.891 2 2 2 2-0.891 2-2zM26 14c0-1.109-0.891-2-2-2s-2 0.891-2 2 0.891 2 2 2 2-0.891 2-2zM30 16c0 4.422-3.578 8-8 8-2.031 0-3.875-0.766-5.281-2h-3.437c-1.406 1.234-3.25 2-5.281 2-4.422 0-8-3.578-8-8s3.578-8 8-8h14c4.422 0 8 3.578 8 8z"></path></symbol>
  <symbol id="calc" viewBox="0 0 26 28"><path d="M6 24c0-1.109-0.891-2-2-2s-2 0.891-2 2 0.891 2 2 2 2-0.891 2-2zM12 24c0-1.109-0.891-2-2-2s-2 0.891-2 2 0.891 2 2 2 2-0.891 2-2zM6 18c0-1.109-0.891-2-2-2s-2 0.891-2 2 0.891 2 2 2 2-0.891 2-2zM18 24c0-1.109-0.891-2-2-2s-2 0.891-2 2 0.891 2 2 2 2-0.891 2-2zM12 18c0-1.109-0.891-2-2-2s-2 0.891-2 2 0.891 2 2 2 2-0.891 2-2zM6 12c0-1.109-0.891-2-2-2s-2 0.891-2 2 0.891 2 2 2 2-0.891 2-2zM18 18c0-1.109-0.891-2-2-2s-2 0.891-2 2 0.891 2 2 2 2-0.891 2-2zM12 12c0-1.109-0.891-2-2-2s-2 0.891-2 2 0.891 2 2 2 2-0.891 2-2zM24 24v-6c0-1.094-0.906-2-2-2v0c-1.094 0-2 0.906-2 2v6c0 1.094 0.906 2 2 2v0c1.094 0 2-0.906 2-2zM18 12c0-1.109-0.891-2-2-2s-2 0.891-2 2 0.891 2 2 2 2-0.891 2-2zM24 7v-4c0-0.547-0.453-1-1-1h-20c-0.547 0-1 0.453-1 1v4c0 0.547 0.453 1 1 1h20c0.547 0 1-0.453 1-1zM24 12c0-1.109-0.891-2-2-2s-2 0.891-2 2 0.891 2 2 2 2-0.891 2-2zM26 2v24c0 1.094-0.906 2-2 2h-22c-1.094 0-2-0.906-2-2v-24c0-1.094 0.906-2 2-2h22c1.094 0 2 0.906 2 2z"></path></symbol>
  <symbol id="envelope" viewBox="0 0 28 28"><path d="M26 23.5v-12c-0.328 0.375-0.688 0.719-1.078 1.031-2.234 1.719-4.484 3.469-6.656 5.281-1.172 0.984-2.625 2.188-4.25 2.188h-0.031c-1.625 0-3.078-1.203-4.25-2.188-2.172-1.813-4.422-3.563-6.656-5.281-0.391-0.313-0.75-0.656-1.078-1.031v12c0 0.266 0.234 0.5 0.5 0.5h23c0.266 0 0.5-0.234 0.5-0.5zM26 7.078c0-0.391 0.094-1.078-0.5-1.078h-23c-0.266 0-0.5 0.234-0.5 0.5 0 1.781 0.891 3.328 2.297 4.438 2.094 1.641 4.188 3.297 6.266 4.953 0.828 0.672 2.328 2.109 3.422 2.109h0.031c1.094 0 2.594-1.437 3.422-2.109 2.078-1.656 4.172-3.313 6.266-4.953 1.016-0.797 2.297-2.531 2.297-3.859zM28 6.5v17c0 1.375-1.125 2.5-2.5 2.5h-23c-1.375 0-2.5-1.125-2.5-2.5v-17c0-1.375 1.125-2.5 2.5-2.5h23c1.375 0 2.5 1.125 2.5 2.5z"></path></symbol>
  <symbol id="xcoin" viewBox="0 0 932.2 502.5"><path d="M632.2 311.6a61.7 61.7 0 0 1-58.6-40.2 71 71 0 0 1-4.7-26.3 71 71 0 0 1 4.7-26.2 58.8 58.8 0 0 1 33.4-33.1c7.7-3 16.1-4.6 25.2-4.6H664c9.4 0 18.1 1.6 25.9 4.7a58.3 58.3 0 0 1 33.3 33.3 73.1 73.1 0 0 1 0 52.2 62.5 62.5 0 0 1-59.1 40.2h-31.9zm31.8-22.8a39.1 39.1 0 0 0 38-25.6c2-5.3 3-10.9 3-17s-1-11.7-3-16.9a39 39 0 0 0-38-25.1h-31.7a40.7 40.7 0 0 0-29 11.8 38.7 38.7 0 0 0-8.4 13.3c-2 5.1-3 10.8-3 17 0 6.1 1 11.8 3 17a38.6 38.6 0 0 0 21.2 22.4c5 2.2 10.4 3.2 16.2 3.2H664zM487.5 311.1a61.7 61.7 0 0 1-58.6-40.2 71 71 0 0 1-4.7-26.3 71 71 0 0 1 4.7-26.2 58.8 58.8 0 0 1 33.4-33.1c7.7-3 16.1-4.6 25.2-4.6h70.6v22.8h-70.6a40.7 40.7 0 0 0-29 11.8 38.7 38.7 0 0 0-8.4 13.3c-2 5.1-3 10.8-3 17 0 6.1 1 11.8 3 17a38.6 38.6 0 0 0 21.2 22.4c5 2.2 10.4 3.2 16.2 3.2h70.6V311h-70.6zM751.2 180.9H774v130.3h-22.8zM819 215.8v95.3h-21.7V192.9c0-4.2 1-7.5 3.1-9.9 2.1-2.4 4.9-3.7 8.5-3.7 1.7 0 3.3.4 4.8 1.1a15 15 0 0 1 4.8 3.6l91.9 91.2v-95.3h21.7v119.3c0 4.3-1 7.6-3.1 10a10.3 10.3 0 0 1-8.2 3.6c-3.7 0-7.2-1.6-10.4-4.8L819 215.8zM120.4 360.5v-1.9L0 501.9v.6h134.4l119.7-142zM120.4 140.4h133.2L135.3 0H.4l120 142.8z"/><path d="M344.7 250.7L556.1 0H421.2L302.8 140.4h19.4v33H153.4v8.7l43.5 51.8h92.3V267h-91.9l-43.9 52.3v8.2h168.8v33h-19.8l119.7 142h134.4v-.6z"/></symbol>

















</svg>
