<svg xmlns="http://www.w3.org/2000/svg">

  <symbol id="arrow-big-left" viewBox="0 0 41 41"><path d="M20.5,0A20.5,20.5,0,1,1,0,20.5,20.53,20.53,0,0,1,20.5,0Zm0,40A19.5,19.5,0,1,0,1,20.5,19.53,19.53,0,0,0,20.5,40Z"/><path d="M27.65,10.15a.49.49,0,1,1,.7.7L18.71,20.5l9.64,9.65a.48.48,0,0,1,0,.7.48.48,0,0,1-.7,0L17.29,20.5Z"/><path d="M23.35,10.15a.48.48,0,0,1,0,.7L13.71,20.5l9.64,9.65a.48.48,0,0,1,0,.7.48.48,0,0,1-.7,0L12.29,20.5,22.65,10.15A.48.48,0,0,1,23.35,10.15Z"/></symbol>
  <symbol id="arrow-big-right" viewBox="0 0 41 41"><path d="M20.5,0A20.5,20.5,0,1,0,41,20.5,20.53,20.53,0,0,0,20.5,0Zm0,40A19.5,19.5,0,1,1,40,20.5,19.53,19.53,0,0,1,20.5,40Z"/><path d="M13.35,10.15a.49.49,0,0,0-.7.7l9.64,9.65-9.64,9.65a.48.48,0,0,0,0,.7.48.48,0,0,0,.7,0L23.71,20.5Z"/><path d="M17.65,10.15a.48.48,0,0,0,0,.7l9.64,9.65-9.64,9.65a.48.48,0,0,0,0,.7.48.48,0,0,0,.7,0L28.71,20.5,18.35,10.15A.48.48,0,0,0,17.65,10.15Z"/></symbol>

  <symbol id="user" viewBox="0 0 15 17"><path d="M10.89,9.82a5.5,5.5,0,1,0-6.78,0A7.52,7.52,0,0,0,0,16.5V17H15v-.5A7.52,7.52,0,0,0,10.89,9.82ZM3,5.5A4.5,4.5,0,1,1,7.5,10,4.51,4.51,0,0,1,3,5.5ZM1,16a6.5,6.5,0,0,1,4.11-5.54,5.47,5.47,0,0,0,4.74,0A6.5,6.5,0,0,1,14,16Z"/></symbol>

  <symbol id="youtube" viewBox="0 0 461.001 461.001"><path d="M365.257,67.393H95.744C42.866,67.393,0,110.259,0,163.137v134.728 c0,52.878,42.866,95.744,95.744,95.744h269.513c52.878,0,95.744-42.866,95.744-95.744V163.137 C461.001,110.259,418.135,67.393,365.257,67.393z M300.506,237.056l-126.06,60.123c-3.359,1.602-7.239-0.847-7.239-4.568V168.607 c0-3.774,3.982-6.22,7.348-4.514l126.06,63.881C304.363,229.873,304.298,235.248,300.506,237.056z"/></symbol>

  <symbol id="facebook" viewBox="0 0 456.814 456.814"><path d="M441.11,252.677c10.468-11.99,15.704-26.169,15.704-42.54c0-14.846-5.432-27.692-16.259-38.547 c-10.849-10.854-23.695-16.278-38.541-16.278h-79.082c0.76-2.664,1.522-4.948,2.282-6.851c0.753-1.903,1.811-3.999,3.138-6.283 c1.328-2.285,2.283-3.999,2.852-5.139c3.425-6.468,6.047-11.801,7.857-15.985c1.807-4.192,3.606-9.9,5.42-17.133 c1.811-7.229,2.711-14.465,2.711-21.698c0-4.566-0.055-8.281-0.145-11.134c-0.089-2.855-0.574-7.139-1.423-12.85 c-0.862-5.708-2.006-10.467-3.43-14.272c-1.43-3.806-3.716-8.092-6.851-12.847c-3.142-4.764-6.947-8.613-11.424-11.565 c-4.476-2.95-10.184-5.424-17.131-7.421c-6.954-1.999-14.801-2.998-23.562-2.998c-4.948,0-9.227,1.809-12.847,5.426 c-3.806,3.806-7.047,8.564-9.709,14.272c-2.666,5.711-4.523,10.66-5.571,14.849c-1.047,4.187-2.238,9.994-3.565,17.415 c-1.719,7.998-2.998,13.752-3.86,17.273c-0.855,3.521-2.525,8.136-4.997,13.845c-2.477,5.713-5.424,10.278-8.851,13.706 c-6.28,6.28-15.891,17.701-28.837,34.259c-9.329,12.18-18.94,23.695-28.837,34.545c-9.899,10.852-17.131,16.466-21.698,16.847 c-4.755,0.38-8.848,2.331-12.275,5.854c-3.427,3.521-5.14,7.662-5.14,12.419v183.01c0,4.949,1.807,9.182,5.424,12.703 c3.615,3.525,7.898,5.38,12.847,5.571c6.661,0.191,21.698,4.374,45.111,12.566c14.654,4.941,26.12,8.706,34.4,11.272 c8.278,2.566,19.849,5.328,34.684,8.282c14.849,2.949,28.551,4.428,41.11,4.428h4.855h21.7h10.276 c25.321-0.38,44.061-7.806,56.247-22.268c11.036-13.135,15.697-30.361,13.99-51.679c7.422-7.042,12.565-15.984,15.416-26.836 c3.231-11.604,3.231-22.74,0-33.397c8.754-11.611,12.847-24.649,12.272-39.115C445.395,268.286,443.971,261.055,441.11,252.677z"/><path d="M100.5,191.864H18.276c-4.952,0-9.235,1.809-12.851,5.426C1.809,200.905,0,205.188,0,210.137v182.732 c0,4.942,1.809,9.227,5.426,12.847c3.619,3.611,7.902,5.421,12.851,5.421H100.5c4.948,0,9.229-1.81,12.847-5.421 c3.616-3.62,5.424-7.904,5.424-12.847V210.137c0-4.949-1.809-9.231-5.424-12.847C109.73,193.672,105.449,191.864,100.5,191.864z M67.665,369.308c-3.616,3.521-7.898,5.281-12.847,5.281c-5.14,0-9.471-1.76-12.99-5.281c-3.521-3.521-5.281-7.85-5.281-12.99 c0-4.948,1.759-9.232,5.281-12.847c3.52-3.617,7.85-5.428,12.99-5.428c4.949,0,9.231,1.811,12.847,5.428 c3.617,3.614,5.426,7.898,5.426,12.847C73.091,361.458,71.286,365.786,67.665,369.308z"/></symbol>

  <symbol id="success" viewBox="0 0 28 28"><path d="M26.109 8.844c0 0.391-0.156 0.781-0.438 1.062l-13.438 13.438c-0.281 0.281-0.672 0.438-1.062 0.438s-0.781-0.156-1.062-0.438l-7.781-7.781c-0.281-0.281-0.438-0.672-0.438-1.062s0.156-0.781 0.438-1.062l2.125-2.125c0.281-0.281 0.672-0.438 1.062-0.438s0.781 0.156 1.062 0.438l4.594 4.609 10.25-10.266c0.281-0.281 0.672-0.438 1.062-0.438s0.781 0.156 1.062 0.438l2.125 2.125c0.281 0.281 0.438 0.672 0.438 1.062z"></path></symbol>

  <symbol id="danger" viewBox="0 0 22 28"><path d="M20.281 20.656c0 0.391-0.156 0.781-0.438 1.062l-2.125 2.125c-0.281 0.281-0.672 0.438-1.062 0.438s-0.781-0.156-1.062-0.438l-4.594-4.594-4.594 4.594c-0.281 0.281-0.672 0.438-1.062 0.438s-0.781-0.156-1.062-0.438l-2.125-2.125c-0.281-0.281-0.438-0.672-0.438-1.062s0.156-0.781 0.438-1.062l4.594-4.594-4.594-4.594c-0.281-0.281-0.438-0.672-0.438-1.062s0.156-0.781 0.438-1.062l2.125-2.125c0.281-0.281 0.672-0.438 1.062-0.438s0.781 0.156 1.062 0.438l4.594 4.594 4.594-4.594c0.281-0.281 0.672-0.438 1.062-0.438s0.781 0.156 1.062 0.438l2.125 2.125c0.281 0.281 0.438 0.672 0.438 1.062s-0.156 0.781-0.438 1.062l-4.594 4.594 4.594 4.594c0.281 0.281 0.438 0.672 0.438 1.062z"></path></symbol>

  <symbol id="sort" viewBox="0 0 16 28"><path d="M16 17c0 0.266-0.109 0.516-0.297 0.703l-7 7c-0.187 0.187-0.438 0.297-0.703 0.297s-0.516-0.109-0.703-0.297l-7-7c-0.187-0.187-0.297-0.438-0.297-0.703 0-0.547 0.453-1 1-1h14c0.547 0 1 0.453 1 1zM16 11c0 0.547-0.453 1-1 1h-14c-0.547 0-1-0.453-1-1 0-0.266 0.109-0.516 0.297-0.703l7-7c0.187-0.187 0.438-0.297 0.703-0.297s0.516 0.109 0.703 0.297l7 7c0.187 0.187 0.297 0.438 0.297 0.703z"></path></symbol>

  <symbol id="plus" viewBox="0 0 8 8"><polygon points="8 3 5 3 5 0 3 0 3 3 0 3 0 5 3 5 3 8 5 8 5 5 8 5 8 3"/></symbol>

  <symbol id="minus" viewBox="0 0 8 2"><rect width="8" height="2"/></symbol>

  <symbol id="pdf" viewBox="0 0 24 28"><path d="M22.937 5.938c0.578 0.578 1.062 1.734 1.062 2.562v18c0 0.828-0.672 1.5-1.5 1.5h-21c-0.828 0-1.5-0.672-1.5-1.5v-25c0-0.828 0.672-1.5 1.5-1.5h14c0.828 0 1.984 0.484 2.562 1.062zM16 2.125v5.875h5.875c-0.094-0.266-0.234-0.531-0.344-0.641l-4.891-4.891c-0.109-0.109-0.375-0.25-0.641-0.344zM22 26v-16h-6.5c-0.828 0-1.5-0.672-1.5-1.5v-6.5h-12v24h20zM13.969 16.734c0.391 0.313 0.828 0.594 1.312 0.875 0.656-0.078 1.266-0.109 1.828-0.109 1.047 0 2.375 0.125 2.766 0.766 0.109 0.156 0.203 0.438 0.031 0.812-0.016 0.016-0.031 0.047-0.047 0.063v0.016c-0.047 0.281-0.281 0.594-1.109 0.594-1 0-2.516-0.453-3.828-1.141-2.172 0.234-4.453 0.719-6.125 1.297-1.609 2.75-2.844 4.094-3.781 4.094-0.156 0-0.297-0.031-0.438-0.109l-0.375-0.187c-0.047-0.016-0.063-0.047-0.094-0.078-0.078-0.078-0.141-0.25-0.094-0.562 0.156-0.719 1-1.922 2.938-2.938 0.125-0.078 0.281-0.031 0.359 0.094 0.016 0.016 0.031 0.047 0.031 0.063 0.484-0.797 1.047-1.813 1.672-3.078 0.703-1.406 1.25-2.781 1.625-4.094-0.5-1.703-0.656-3.453-0.375-4.484 0.109-0.391 0.344-0.625 0.656-0.625h0.344c0.234 0 0.422 0.078 0.547 0.234 0.187 0.219 0.234 0.562 0.141 1.062-0.016 0.047-0.031 0.094-0.063 0.125 0.016 0.047 0.016 0.078 0.016 0.125v0.469c-0.016 0.984-0.031 1.922-0.219 3 0.547 1.641 1.359 2.969 2.281 3.719zM4.969 23.156c0.469-0.219 1.141-0.891 2.141-2.469-1.172 0.906-1.906 1.937-2.141 2.469zM11.188 8.781c-0.156 0.438-0.156 1.188-0.031 2.063 0.047-0.25 0.078-0.484 0.109-0.688 0.031-0.266 0.078-0.484 0.109-0.672 0.016-0.047 0.031-0.078 0.063-0.125-0.016-0.016-0.016-0.047-0.031-0.078-0.016-0.281-0.109-0.453-0.203-0.562 0 0.031-0.016 0.047-0.016 0.063zM9.25 19.109c1.375-0.547 2.906-0.984 4.438-1.266-0.156-0.125-0.313-0.234-0.453-0.359-0.766-0.672-1.453-1.609-1.984-2.75-0.297 0.953-0.734 1.969-1.297 3.078-0.234 0.438-0.469 0.875-0.703 1.297zM19.344 18.859c-0.078-0.078-0.484-0.375-2.188-0.375 0.766 0.281 1.469 0.438 1.937 0.438 0.141 0 0.219 0 0.281-0.016 0-0.016-0.016-0.031-0.031-0.047z"></path></symbol>

  <symbol id="word" viewBox="0 0 24 28"><path d="M22.937 5.938c0.578 0.578 1.062 1.734 1.062 2.562v18c0 0.828-0.672 1.5-1.5 1.5h-21c-0.828 0-1.5-0.672-1.5-1.5v-25c0-0.828 0.672-1.5 1.5-1.5h14c0.828 0 1.984 0.484 2.562 1.062zM16 2.125v5.875h5.875c-0.094-0.266-0.234-0.531-0.344-0.641l-4.891-4.891c-0.109-0.109-0.375-0.25-0.641-0.344zM22 26v-16h-6.5c-0.828 0-1.5-0.672-1.5-1.5v-6.5h-12v24h20zM3.641 12v1.672h1.094l2.562 10.328h2.484l2-7.578c0.078-0.234 0.125-0.469 0.156-0.719 0.016-0.125 0.031-0.25 0.031-0.375h0.063l0.047 0.375c0.047 0.219 0.063 0.469 0.141 0.719l2 7.578h2.484l2.562-10.328h1.094v-1.672h-4.688v1.672h1.406l-1.547 6.844c-0.063 0.25-0.094 0.516-0.109 0.719l-0.031 0.328h-0.063c0-0.094-0.031-0.219-0.047-0.328-0.047-0.203-0.078-0.469-0.141-0.719l-2.25-8.516h-1.781l-2.25 8.516c-0.063 0.25-0.078 0.516-0.125 0.719l-0.063 0.328h-0.063l-0.031-0.328c-0.016-0.203-0.047-0.469-0.109-0.719l-1.547-6.844h1.406v-1.672h-4.688z"></path></symbol>

  <symbol id="exel" viewBox="0 0 24 28"><path d="M22.937 5.938c0.578 0.578 1.062 1.734 1.062 2.562v18c0 0.828-0.672 1.5-1.5 1.5h-21c-0.828 0-1.5-0.672-1.5-1.5v-25c0-0.828 0.672-1.5 1.5-1.5h14c0.828 0 1.984 0.484 2.562 1.062zM16 2.125v5.875h5.875c-0.094-0.266-0.234-0.531-0.344-0.641l-4.891-4.891c-0.109-0.109-0.375-0.25-0.641-0.344zM22 26v-16h-6.5c-0.828 0-1.5-0.672-1.5-1.5v-6.5h-12v24h20zM6.703 22.344v1.656h4.391v-1.656h-1.172l1.609-2.516c0.187-0.297 0.281-0.531 0.328-0.531h0.031c0.016 0.063 0.047 0.109 0.078 0.156 0.063 0.125 0.156 0.219 0.266 0.375l1.672 2.516h-1.188v1.656h4.547v-1.656h-1.062l-3-4.266 3.047-4.406h1.047v-1.672h-4.359v1.672h1.156l-1.609 2.484c-0.187 0.297-0.328 0.531-0.328 0.516h-0.031c-0.016-0.063-0.047-0.109-0.078-0.156-0.063-0.109-0.141-0.219-0.266-0.359l-1.656-2.484h1.188v-1.672h-4.531v1.672h1.062l2.953 4.25-3.031 4.422h-1.062z"></path></symbol>

  <symbol id="archive" viewBox="0 0 24 28"><path d="M10 6v-2h-2v2h2zM12 8v-2h-2v2h2zM10 10v-2h-2v2h2zM12 12v-2h-2v2h2zM22.937 5.938c0.578 0.578 1.062 1.734 1.062 2.562v18c0 0.828-0.672 1.5-1.5 1.5h-21c-0.828 0-1.5-0.672-1.5-1.5v-25c0-0.828 0.672-1.5 1.5-1.5h14c0.828 0 1.984 0.484 2.562 1.062zM16 2.125v5.875h5.875c-0.094-0.266-0.234-0.531-0.344-0.641l-4.891-4.891c-0.109-0.109-0.375-0.25-0.641-0.344zM22 26v-16h-6.5c-0.828 0-1.5-0.672-1.5-1.5v-6.5h-2v2h-2v-2h-8v24h20zM12.203 14.734c1.328 4.484 1.672 5.453 1.672 5.453 0.078 0.266 0.125 0.531 0.125 0.812 0 1.734-1.687 3-4 3s-4-1.266-4-3c0-0.281 0.047-0.547 0.125-0.812 0 0 0.328-0.969 1.875-6.188v-2h2v2h1.234c0.453 0 0.844 0.297 0.969 0.734zM10 22c1.109 0 2-0.453 2-1s-0.891-1-2-1-2 0.453-2 1 0.891 1 2 1z"></path></symbol>

  <symbol id="driver" viewBox="0 0 24 28"><path d="M22.937 5.938c0.578 0.578 1.062 1.734 1.062 2.562v18c0 0.828-0.672 1.5-1.5 1.5h-21c-0.828 0-1.5-0.672-1.5-1.5v-25c0-0.828 0.672-1.5 1.5-1.5h14c0.828 0 1.984 0.484 2.562 1.062zM16 2.125v5.875h5.875c-0.094-0.266-0.234-0.531-0.344-0.641l-4.891-4.891c-0.109-0.109-0.375-0.25-0.641-0.344zM22 26v-16h-6.5c-0.828 0-1.5-0.672-1.5-1.5v-6.5h-12v24h20zM7.5 12c0.172-0.219 0.484-0.266 0.703-0.094l0.797 0.594c0.219 0.172 0.266 0.484 0.094 0.703l-2.844 3.797 2.844 3.797c0.172 0.219 0.125 0.531-0.094 0.703l-0.797 0.594c-0.219 0.172-0.531 0.125-0.703-0.094l-3.531-4.703c-0.125-0.172-0.125-0.422 0-0.594zM20.031 16.703c0.125 0.172 0.125 0.422 0 0.594l-3.531 4.703c-0.172 0.219-0.484 0.266-0.703 0.094l-0.797-0.594c-0.219-0.172-0.266-0.484-0.094-0.703l2.844-3.797-2.844-3.797c-0.172-0.219-0.125-0.531 0.094-0.703l0.797-0.594c0.219-0.172 0.531-0.125 0.703 0.094zM10.344 23.906c-0.281-0.047-0.453-0.313-0.406-0.578l2.156-12.984c0.047-0.281 0.313-0.453 0.578-0.406l0.984 0.156c0.281 0.047 0.453 0.313 0.406 0.578l-2.156 12.984c-0.047 0.281-0.313 0.453-0.578 0.406z"></path></symbol>

  <symbol id="calendar" viewBox="0 0 13 14"><path d="M10,2V0H9V2H4V0H3V2H0V14H13V2Zm2,11H1V6H12ZM1,5V3H3V4H4V3H9V4h1V3h2V5Z"/></symbol>

  <symbol id="action-end-ru" viewBox="0 0 415 415" fill="#df3838"><path d="M127 123.9c0-2.6-1.1-5.2-3.1-7.9l.2-.2a13 13 0 0 0 7.6 2.4 9.8 9.8 0 0 0 6.6-3.1c2.4-2.4 3.5-5.1 3.4-8.1-.1-3-1.5-5.8-4.1-8.4a18.5 18.5 0 0 0-12.7-5.8l-1.1 6.7c3.3.2 5.9 1.2 7.8 3.1 1.3 1.3 1.9 2.5 1.9 3.9 0 1.3-.6 2.6-1.8 3.8-1.5 1.5-3.2 2.2-4.9 1.9-1.7-.3-3.6-1.4-5.7-3.5l-1.9-1.9-4.8 4.8 2.1 2.1c2.1 2.1 3.4 4.1 3.7 6 .3 1.9-.3 3.6-1.8 5.1-3.3 3.3-6.9 3.1-10.6-.7a19.2 19.2 0 0 1-5-8.6l-5.2 5.2c.9 2.9 3.1 6.1 6.5 9.5 3.2 3.2 6.6 4.9 10.1 5.1 3.5.2 6.8-1.2 9.7-4.1a11 11 0 0 0 3.1-7.3zm29 12.4c.1-2.8-1.1-5.5-3.6-8a19.7 19.7 0 0 0-10.1-5.5l-2 6c3 .8 5.2 1.8 6.7 3.3 1.9 1.9 1.8 4-.5 6.3l-1.7 1.7-3.3-3.1c-2.9-2.6-5.7-4-8.3-4.2-2.6-.2-5.2 1-7.8 3.6a12.3 12.3 0 0 0-4 7.1c-.3 2.3.4 4.4 2.2 6.2a8.8 8.8 0 0 0 4.2 2.6c1.4.4 3.3.3 5.6-.3l.1.1-2.1 4.4 4.2 4.2 16.2-16.2a13 13 0 0 0 4.2-8.2zm-16.9 9.4a9 9 0 0 1-4.7 2.8c-1.6.3-2.9-.1-3.9-1.1-1.4-1.4-1.1-3.1.9-5.1 1.3-1.3 2.7-2 4-2.1 1.3-.1 2.6.5 4 1.8l1.9 1.7-2.2 2zm27.6 21.1l.2-.2a8 8 0 0 0 5.2 1.8c1.7-.1 3.2-.8 4.6-2.2 4.2-4.2 3.3-9.2-2.5-15l-8.4-8.4-24.1 24.1 8.5 8.5c3 3 6 4.8 8.8 5.2 2.9.4 5.4-.5 7.8-2.9a7 7 0 0 0 2.2-5.1c0-2-.8-3.9-2.3-5.8zm-5.6 4.5c-2.1 2.1-4.5 1.9-7.1-.7l-2.3-2.3 6.1-6.1 2.2 2.2a7.7 7.7 0 0 1 2.3 3.7c.2 1.1-.2 2.2-1.2 3.2zm2.7-11.6l-1.7-1.7 5.1-5.1 2.4 2.4c2.1 2.1 2.4 4 .8 5.5-1 1-2 1.4-3 1.1-1.2-.1-2.3-.9-3.6-2.2zm16.8 43.7l4.7-4.7a16 16 0 0 1-7.5-4 6 6 0 0 1-1.9-5c.2-1.9 1.4-3.9 3.5-6.1l11.6 11.6 3.1-3.1c3.5-3.5 5.4-6.9 5.8-10.3.4-3.4-.7-6.5-3.3-9.1a10.6 10.6 0 0 0-9.9-3.2 23 23 0 0 0-11.7 7 20 20 0 0 0-6.5 11.7c-.4 3.9.9 7.3 3.9 10.4 2.5 2.4 5.3 4.1 8.2 4.8zm8.1-27.1c1.4-.3 2.5-.1 3.3.7.9.9 1.1 2 .7 3.4-.4 1.4-1.5 3-3.2 4.8l-5.8-5.8c1.9-1.8 3.6-2.8 5-3.1zm31.6 26.6c.9-3.4.3-6.2-1.9-8.4-2.3-2.3-5.2-2.8-8.8-1.6l-.3-.3 2.1-4.1-4.4-4.5-34.8 34.8 5.8 5.8 9.9-9.9 3.2-3.9.3.3a8.5 8.5 0 0 0-.2 4.7c.3 1.3 1 2.4 2.1 3.5 2.2 2.2 5.1 2.9 8.6 1.9 3.5-.9 7.2-3.4 11.1-7.3 3.9-3.9 6.4-7.6 7.3-11zm-8.3-1.3c-.7 1.7-2.4 3.9-4.9 6.4-5.1 5.1-8.7 6.7-10.7 4.6-1.2-1.2-1.4-2.6-.7-4.3.7-1.7 2.4-3.9 5-6.6l.8-.8a19 19 0 0 1 6-4.4c1.5-.5 2.9-.3 4 .9 1.1 1 1.3 2.4.5 4.2zm39.7 27l-19.5 19.5-5.5-5.5 19.5-19.4-5.8-5.8-19.5 19.4-5.4-5.4 19.4-19.5-5.7-5.8-24.1 24.2 28.2 28.2 24.2-24.1zm2.2 42.1a6 6 0 0 1-1.9-5c.2-1.9 1.4-3.9 3.5-6.1l11.6 11.6 3.1-3.1c3.5-3.5 5.4-6.9 5.8-10.3.4-3.4-.7-6.5-3.3-9.1a10.6 10.6 0 0 0-9.9-3.2 23 23 0 0 0-11.7 7 20 20 0 0 0-6.5 11.7c-.4 3.9.9 7.3 3.9 10.4 2.6 2.6 5.4 4.2 8.3 5l4.7-4.7a18 18 0 0 1-7.6-4.2zm10.8-18.4c1.4-.3 2.5-.1 3.3.7.9.9 1.1 2 .7 3.4-.4 1.4-1.5 3-3.2 4.8l-5.8-5.8a13 13 0 0 1 5-3.1zm30.6 20l-9.4 9.4-6.5-6.5 9.4-9.4-5.8-5.8-24.1 24.1 5.8 5.8 10.1-10.1 6.5 6.5-10.1 10.1 5.8 5.8 24.1-24.1zm8.5 12l-2 6c3 .8 5.2 1.8 6.7 3.3 1.9 1.9 1.8 4-.5 6.3l-1.7 1.7-3.3-3.1c-2.9-2.6-5.7-4-8.3-4.2-2.6-.2-5.2 1-7.8 3.6a12.3 12.3 0 0 0-4 7.1c-.3 2.3.4 4.4 2.2 6.2a8.8 8.8 0 0 0 4.2 2.6c1.4.4 3.3.3 5.6-.3l.1.1-2.1 4.4 4.2 4.2 16.2-16.2c2.7-2.7 4.1-5.4 4.2-8.2.1-2.8-1.1-5.5-3.6-8a21.3 21.3 0 0 0-10.1-5.5zm-3.2 23a9 9 0 0 1-4.7 2.8c-1.6.3-2.9-.1-3.9-1.1-1.4-1.4-1.1-3.1.9-5.1 1.3-1.3 2.7-2 4-2.1 1.3-.1 2.6.5 4 1.8l1.9 1.7-2.2 2z" /><path d="M95 0L0 95l320 320 95-95L95 0zM7.1 95l88-88L408 320l-88 88L7.1 95z"/></symbol>

  <symbol id="truck" viewBox="0 0 29 28"><path d="M10 22c0-1.094-0.906-2-2-2s-2 0.906-2 2 0.906 2 2 2 2-0.906 2-2zM4 14h6v-4h-2.469c-0.063 0-0.297 0.094-0.344 0.141l-3.047 3.047c-0.047 0.047-0.141 0.281-0.141 0.344v0.469zM24 22c0-1.094-0.906-2-2-2s-2 0.906-2 2 0.906 2 2 2 2-0.906 2-2zM28 5v16c0 1.156-1.219 1-2 1 0 2.203-1.797 4-4 4s-4-1.797-4-4h-6c0 2.203-1.797 4-4 4s-4-1.797-4-4h-1c-0.781 0-2 0.156-2-1 0-0.547 0.453-1 1-1v-5c0-1.109-0.156-2.344 0.703-3.203l3.094-3.094c0.391-0.391 1.141-0.703 1.703-0.703h2.5v-3c0-0.547 0.453-1 1-1h16c0.547 0 1 0.453 1 1z"></path></symbol>

  <symbol id="text" viewBox="0 0 24 28"><path d="M22.937 5.938c0.578 0.578 1.062 1.734 1.062 2.562v18c0 0.828-0.672 1.5-1.5 1.5h-21c-0.828 0-1.5-0.672-1.5-1.5v-25c0-0.828 0.672-1.5 1.5-1.5h14c0.828 0 1.984 0.484 2.562 1.062zM16 2.125v5.875h5.875c-0.094-0.266-0.234-0.531-0.344-0.641l-4.891-4.891c-0.109-0.109-0.375-0.25-0.641-0.344zM22 26v-16h-6.5c-0.828 0-1.5-0.672-1.5-1.5v-6.5h-12v24h20zM6 12.5c0-0.281 0.219-0.5 0.5-0.5h11c0.281 0 0.5 0.219 0.5 0.5v1c0 0.281-0.219 0.5-0.5 0.5h-11c-0.281 0-0.5-0.219-0.5-0.5v-1zM17.5 16c0.281 0 0.5 0.219 0.5 0.5v1c0 0.281-0.219 0.5-0.5 0.5h-11c-0.281 0-0.5-0.219-0.5-0.5v-1c0-0.281 0.219-0.5 0.5-0.5h11zM17.5 20c0.281 0 0.5 0.219 0.5 0.5v1c0 0.281-0.219 0.5-0.5 0.5h-11c-0.281 0-0.5-0.219-0.5-0.5v-1c0-0.281 0.219-0.5 0.5-0.5h11z"></path></symbol>

  <symbol id="floppy" viewBox="0 0 24 28"><path d="M6 24h12v-6h-12v6zM20 24h2v-14c0-0.297-0.266-0.938-0.469-1.141l-4.391-4.391c-0.219-0.219-0.828-0.469-1.141-0.469v6.5c0 0.828-0.672 1.5-1.5 1.5h-9c-0.828 0-1.5-0.672-1.5-1.5v-6.5h-2v20h2v-6.5c0-0.828 0.672-1.5 1.5-1.5h13c0.828 0 1.5 0.672 1.5 1.5v6.5zM14 9.5v-5c0-0.266-0.234-0.5-0.5-0.5h-3c-0.266 0-0.5 0.234-0.5 0.5v5c0 0.266 0.234 0.5 0.5 0.5h3c0.266 0 0.5-0.234 0.5-0.5zM24 10v14.5c0 0.828-0.672 1.5-1.5 1.5h-21c-0.828 0-1.5-0.672-1.5-1.5v-21c0-0.828 0.672-1.5 1.5-1.5h14.5c0.828 0 1.969 0.469 2.562 1.062l4.375 4.375c0.594 0.594 1.062 1.734 1.062 2.562z"></path></symbol>

  <symbol id="folder" viewBox="0 0 30 28"><path d="M27.828 14.547c0-0.438-0.484-0.547-0.828-0.547h-17c-0.828 0-1.922 0.516-2.453 1.156l-4.594 5.672c-0.141 0.187-0.281 0.391-0.281 0.625 0 0.438 0.484 0.547 0.828 0.547h17c0.828 0 1.922-0.516 2.453-1.172l4.594-5.672c0.141-0.172 0.281-0.375 0.281-0.609zM10 12h12v-2.5c0-0.828-0.672-1.5-1.5-1.5h-9c-0.828 0-1.5-0.672-1.5-1.5v-1c0-0.828-0.672-1.5-1.5-1.5h-5c-0.828 0-1.5 0.672-1.5 1.5v13.328l4-4.922c0.906-1.109 2.578-1.906 4-1.906zM29.828 14.547c0 0.688-0.297 1.344-0.719 1.875l-4.609 5.672c-0.891 1.094-2.594 1.906-4 1.906h-17c-1.922 0-3.5-1.578-3.5-3.5v-15c0-1.922 1.578-3.5 3.5-3.5h5c1.922 0 3.5 1.578 3.5 3.5v0.5h8.5c1.922 0 3.5 1.578 3.5 3.5v2.5h3c1.062 0 2.125 0.484 2.594 1.484 0.156 0.328 0.234 0.688 0.234 1.062z"></path></symbol>

  <symbol id="video" viewBox="0 0 28 28"><path d="M28 5.5v17c0 0.406-0.25 0.766-0.609 0.922-0.125 0.047-0.266 0.078-0.391 0.078-0.266 0-0.516-0.094-0.703-0.297l-6.297-6.297v2.594c0 2.484-2.016 4.5-4.5 4.5h-11c-2.484 0-4.5-2.016-4.5-4.5v-11c0-2.484 2.016-4.5 4.5-4.5h11c2.484 0 4.5 2.016 4.5 4.5v2.578l6.297-6.281c0.187-0.203 0.438-0.297 0.703-0.297 0.125 0 0.266 0.031 0.391 0.078 0.359 0.156 0.609 0.516 0.609 0.922z"></path></symbol>

  <symbol id="file" viewBox="0 0 24 28"><path d="M22.937 5.938c0.578 0.578 1.062 1.734 1.062 2.562v18c0 0.828-0.672 1.5-1.5 1.5h-21c-0.828 0-1.5-0.672-1.5-1.5v-25c0-0.828 0.672-1.5 1.5-1.5h14c0.828 0 1.984 0.484 2.562 1.062zM16 2.125v5.875h5.875c-0.094-0.266-0.234-0.531-0.344-0.641l-4.891-4.891c-0.109-0.109-0.375-0.25-0.641-0.344zM22 26v-16h-6.5c-0.828 0-1.5-0.672-1.5-1.5v-6.5h-12v24h20z"></path></symbol>

  <symbol id="certificate" viewBox="0 0 24 28"><path d="M21.5 14l2.156 2.109c0.297 0.281 0.406 0.703 0.313 1.094-0.109 0.391-0.422 0.703-0.812 0.797l-2.938 0.75 0.828 2.906c0.109 0.391 0 0.812-0.297 1.094-0.281 0.297-0.703 0.406-1.094 0.297l-2.906-0.828-0.75 2.938c-0.094 0.391-0.406 0.703-0.797 0.812-0.094 0.016-0.203 0.031-0.297 0.031-0.297 0-0.594-0.125-0.797-0.344l-2.109-2.156-2.109 2.156c-0.281 0.297-0.703 0.406-1.094 0.313-0.406-0.109-0.703-0.422-0.797-0.812l-0.75-2.938-2.906 0.828c-0.391 0.109-0.812 0-1.094-0.297-0.297-0.281-0.406-0.703-0.297-1.094l0.828-2.906-2.938-0.75c-0.391-0.094-0.703-0.406-0.812-0.797-0.094-0.391 0.016-0.812 0.313-1.094l2.156-2.109-2.156-2.109c-0.297-0.281-0.406-0.703-0.313-1.094 0.109-0.391 0.422-0.703 0.812-0.797l2.938-0.75-0.828-2.906c-0.109-0.391 0-0.812 0.297-1.094 0.281-0.297 0.703-0.406 1.094-0.297l2.906 0.828 0.75-2.938c0.094-0.391 0.406-0.703 0.797-0.797 0.391-0.109 0.812 0 1.094 0.297l2.109 2.172 2.109-2.172c0.281-0.297 0.688-0.406 1.094-0.297 0.391 0.094 0.703 0.406 0.797 0.797l0.75 2.938 2.906-0.828c0.391-0.109 0.812 0 1.094 0.297 0.297 0.281 0.406 0.703 0.297 1.094l-0.828 2.906 2.938 0.75c0.391 0.094 0.703 0.406 0.812 0.797 0.094 0.391-0.016 0.812-0.313 1.094z"></path></symbol>

  <symbol id="download" viewBox="0 0 26 28"><path d="M20 21c0-0.547-0.453-1-1-1s-1 0.453-1 1 0.453 1 1 1 1-0.453 1-1zM24 21c0-0.547-0.453-1-1-1s-1 0.453-1 1 0.453 1 1 1 1-0.453 1-1zM26 17.5v5c0 0.828-0.672 1.5-1.5 1.5h-23c-0.828 0-1.5-0.672-1.5-1.5v-5c0-0.828 0.672-1.5 1.5-1.5h7.266l2.109 2.125c0.578 0.562 1.328 0.875 2.125 0.875s1.547-0.313 2.125-0.875l2.125-2.125h7.25c0.828 0 1.5 0.672 1.5 1.5zM20.922 8.609c0.156 0.375 0.078 0.812-0.219 1.094l-7 7c-0.187 0.203-0.453 0.297-0.703 0.297s-0.516-0.094-0.703-0.297l-7-7c-0.297-0.281-0.375-0.719-0.219-1.094 0.156-0.359 0.516-0.609 0.922-0.609h4v-7c0-0.547 0.453-1 1-1h4c0.547 0 1 0.453 1 1v7h4c0.406 0 0.766 0.25 0.922 0.609z"></path></symbol>












</svg>
